<svg xmlns="http://www.w3.org/2000/svg" xmlns:xlink="http://www.w3.org/1999/xlink" width="500" zoomAndPan="magnify" viewBox="0 0 375 374.999991" height="500" preserveAspectRatio="xMidYMid meet" version="1.0"><defs><clipPath id="d366749028"><path d="M 9.4375 5 L 365.6875 5 L 365.6875 370 L 9.4375 370 Z M 9.4375 5 " clip-rule="nonzero"/></clipPath></defs><g clip-path="url(#d366749028)"><path fill="#545454" d="M 364.921875 363.09375 L 335.210938 287.320312 C 349.21875 267.414062 357.554688 242.003906 357.554688 219.128906 C 357.554688 171.691406 327.144531 128.921875 279.917969 109.398438 C 271.039062 50.789062 216.007812 5.464844 149.464844 5.464844 C 76.75 5.464844 17.585938 59.511719 17.585938 125.949219 C 17.585938 148.835938 25.914062 174.234375 39.933594 194.136719 L 10.210938 269.914062 C 9.511719 271.683594 9.96875 273.714844 11.367188 275.019531 C 12.242188 275.839844 13.390625 276.277344 14.546875 276.277344 C 15.21875 276.277344 15.898438 276.128906 16.535156 275.828125 L 91.738281 240.367188 C 93.128906 240.8125 94.65625 241.214844 96.222656 241.59375 C 107.992188 298.558594 161.824219 339.613281 225.660156 339.613281 C 227.253906 339.613281 264.660156 339.539062 283.367188 333.554688 L 358.5625 369.019531 C 359.195312 369.316406 359.886719 369.46875 360.558594 369.46875 C 361.714844 369.46875 362.859375 369.027344 363.738281 368.210938 C 365.15625 366.90625 365.613281 364.875 364.921875 363.09375 Z M 88.371094 231.664062 L 23.175781 262.402344 L 48.960938 196.671875 C 49.902344 194.214844 49.546875 191.5 48.035156 189.441406 C 34.8125 170.992188 26.921875 147.25 26.921875 125.949219 C 26.921875 64.65625 81.898438 14.785156 149.476562 14.785156 C 217.023438 14.785156 271.988281 64.65625 271.988281 125.949219 C 271.988281 187.242188 217.023438 237.113281 149.476562 237.113281 C 136.289062 237.113281 107.742188 235.902344 94.050781 231.316406 C 92.167969 230.703125 90.058594 230.84375 88.371094 231.664062 Z M 286.78125 324.851562 C 285.019531 324.003906 282.9375 323.882812 281.0625 324.507812 C 267.410156 329.082031 238.875 330.292969 225.6875 330.292969 C 167.726562 330.292969 118.691406 294.167969 106.238281 243.515625 C 125.199219 246.386719 148.226562 246.429688 149.476562 246.429688 C 222.171875 246.429688 281.316406 192.378906 281.316406 125.949219 C 281.316406 123.945312 281.089844 121.988281 280.988281 120.003906 C 322.058594 138.882812 348.238281 177.050781 348.238281 219.128906 C 348.238281 240.410156 340.339844 264.144531 327.152344 282.585938 C 325.613281 284.691406 325.257812 287.402344 326.199219 289.871094 L 351.960938 355.582031 Z M 286.78125 324.851562 " fill-opacity="1" fill-rule="nonzero"/></g></svg>