<svg xmlns="http://www.w3.org/2000/svg" xmlns:xlink="http://www.w3.org/1999/xlink" width="500" zoomAndPan="magnify" viewBox="0 0 375 374.999991" height="500" preserveAspectRatio="xMidYMid meet" version="1.0"><defs><clipPath id="b4ec4b0399"><path d="M 9.058594 0 L 366 0 L 366 375 L 9.058594 375 Z M 9.058594 0 " clip-rule="nonzero"/></clipPath></defs><g clip-path="url(#b4ec4b0399)"><path fill="#000000" d="M 9.121094 17.855469 C 9.121094 7.996094 17.113281 0 26.964844 0 L 348.152344 0 C 358.007812 0 365.996094 7.996094 365.996094 17.855469 L 365.996094 71.429688 C 365.996094 76.640625 363.71875 81.59375 359.765625 84.988281 L 241.089844 186.785156 L 241.089844 321.429688 C 241.089844 328.191406 237.273438 334.375 231.226562 337.398438 L 159.851562 373.113281 C 154.363281 375.859375 147.855469 375.59375 142.609375 372.40625 C 137.367188 369.21875 134.125 363.5625 134.03125 357.421875 L 131.367188 186.773438 L 15.203125 84.855469 C 11.339844 81.464844 9.121094 76.570312 9.121094 71.429688 Z M 44.808594 35.714844 L 44.808594 63.335938 L 160.847656 165.144531 C 164.640625 168.46875 166.847656 173.246094 166.925781 178.292969 L 169.269531 328.472656 L 205.402344 310.394531 L 205.402344 178.570312 C 205.402344 173.359375 207.679688 168.40625 211.632812 165.011719 L 330.308594 63.214844 L 330.308594 35.714844 Z M 44.808594 35.714844 " fill-opacity="1" fill-rule="evenodd"/></g></svg>