<svg xmlns="http://www.w3.org/2000/svg" xmlns:xlink="http://www.w3.org/1999/xlink" width="500" zoomAndPan="magnify" viewBox="0 0 375 374.999991" height="500" preserveAspectRatio="xMidYMid meet" version="1.0"><defs><clipPath id="98639a688d"><path d="M 4.089844 20.828125 L 370.839844 20.828125 L 370.839844 353.828125 L 4.089844 353.828125 Z M 4.089844 20.828125 " clip-rule="nonzero"/></clipPath></defs><g clip-path="url(#98639a688d)"><path fill="#000000" d="M 173.632812 329.160156 C 171.402344 331.390625 171.402344 335.011719 173.632812 337.242188 C 175.867188 339.472656 179.492188 339.472656 181.722656 337.242188 L 344.339844 174.765625 C 361.90625 157.214844 370.6875 134.089844 370.6875 110.96875 C 370.6875 87.847656 361.90625 64.71875 344.339844 47.171875 C 326.777344 29.621094 303.628906 20.847656 280.488281 20.847656 C 257.347656 20.847656 234.199219 29.621094 216.636719 47.171875 L 22.78125 240.859375 C 11.265625 252.367188 5.042969 270.113281 4.625 287.8125 C 4.203125 305.585938 9.625 323.503906 21.394531 335.265625 L 21.398438 335.265625 C 33.816406 347.675781 53.414062 353.878906 72.890625 353.878906 C 92.367188 353.878906 111.96875 347.675781 124.386719 335.265625 L 304.238281 155.570312 L 304.238281 155.566406 C 313.527344 146.285156 318.175781 134.058594 318.175781 121.832031 C 318.175781 109.609375 313.527344 97.378906 304.238281 88.097656 C 294.964844 78.828125 282.71875 74.195312 270.472656 74.191406 L 270.472656 74.171875 C 258.238281 74.171875 245.996094 78.8125 236.707031 88.09375 L 63.28125 261.375 C 61.046875 263.605469 61.046875 267.222656 63.28125 269.457031 C 65.511719 271.6875 69.136719 271.6875 71.371094 269.457031 L 244.796875 96.175781 C 251.851562 89.128906 261.160156 85.601562 270.472656 85.601562 L 270.472656 85.578125 C 279.769531 85.578125 289.078125 89.113281 296.148438 96.179688 C 303.203125 103.226562 306.734375 112.527344 306.734375 121.832031 C 306.734375 131.136719 303.203125 140.4375 296.148438 147.484375 L 296.148438 147.488281 L 116.296875 327.183594 C 106.113281 337.359375 89.5625 342.449219 72.890625 342.449219 C 56.222656 342.449219 39.667969 337.359375 29.484375 327.183594 C 20.019531 317.726562 15.667969 302.933594 16.019531 288.078125 C 16.371094 273.152344 21.464844 258.339844 30.871094 248.941406 L 224.726562 55.253906 C 240.054688 39.9375 260.269531 32.277344 280.488281 32.277344 C 300.707031 32.277344 320.921875 39.9375 336.253906 55.253906 C 351.582031 70.570312 359.246094 90.769531 359.246094 110.96875 C 359.246094 131.167969 351.582031 151.367188 336.253906 166.683594 Z M 173.632812 329.160156 " fill-opacity="1" fill-rule="nonzero"/></g></svg>