<svg width="13" height="7" viewBox="0 0 13 7" fill="none" xmlns="http://www.w3.org/2000/svg">
<path d="M6.2443 1.34589C5.02615 1.34589 4.0341 2.28799 4.0341 3.44466C4.0341 4.60151 5.02615 5.54343 6.2443 5.54343C7.46245 5.54343 8.4545 4.60151 8.4545 3.44466C8.4545 2.28799 7.46245 1.34589 6.2443 1.34589ZM6.2443 5.04957C5.312 5.04957 4.55422 4.32979 4.55422 3.44466C4.55422 2.55953 5.312 1.83975 6.2443 1.83975C7.17641 1.83975 7.93439 2.55953 7.93439 3.44466C7.93439 4.32979 7.17641 5.04957 6.2443 5.04957ZM6.50436 2.58045C6.50436 2.71622 6.38732 2.82747 6.2443 2.82747C5.88542 2.82747 5.59425 3.10388 5.59425 3.44466C5.59425 3.58043 5.47722 3.6915 5.3342 3.6915C5.19117 3.6915 5.07414 3.58043 5.07414 3.44466C5.07414 2.83234 5.59938 2.33361 6.2443 2.33361C6.38732 2.33361 6.50436 2.44468 6.50436 2.58045ZM12.0596 3.32115C10.861 1.34102 8.63261 0.111328 6.2443 0.111328C3.85599 0.111328 1.62758 1.34102 0.428776 3.32115C0.383442 3.39778 0.383442 3.49154 0.428776 3.56691C1.62758 5.5483 3.85599 6.77799 6.2443 6.77799C8.63261 6.77799 10.861 5.5483 12.0596 3.56817C12.1065 3.49154 12.1065 3.39778 12.0596 3.32115ZM6.2443 6.28413C4.0912 6.28413 2.07865 5.20013 0.955339 3.44466C2.07865 1.68919 4.0912 0.605189 6.2443 0.605189C8.39722 0.605189 10.4098 1.68919 11.5331 3.44466C10.4098 5.20013 8.39722 6.28413 6.2443 6.28413Z" fill="white"/>
</svg>
