<svg xmlns="http://www.w3.org/2000/svg" xmlns:xlink="http://www.w3.org/1999/xlink" width="500" zoomAndPan="magnify" viewBox="0 0 375 374.999991" height="500" preserveAspectRatio="xMidYMid meet" version="1.0"><defs><clipPath id="7d8b2f63b2"><path d="M 41 53 L 336 53 L 336 327.785156 L 41 327.785156 Z M 41 53 " clip-rule="nonzero"/></clipPath></defs><g clip-path="url(#7d8b2f63b2)"><path fill="#e7e8ff" d="M 124.015625 327.753906 L 261.71875 327.753906 C 277.597656 327.753906 292.933594 321.949219 304.835938 311.425781 L 319.054688 298.855469 C 343.222656 277.496094 341.199219 239.175781 314.917969 220.480469 C 293.765625 205.433594 287.613281 176.703125 300.746094 154.304688 L 302.230469 151.773438 C 314.097656 131.523438 311.332031 105.890625 295.417969 88.644531 L 276.222656 67.84375 C 257.25 47.28125 224.03125 49.960938 208.59375 73.300781 C 196.851562 91.046875 173.933594 97.578125 154.613281 88.679688 L 146.222656 84.816406 C 122.117188 73.714844 93.527344 81.824219 78.824219 103.925781 L 69.402344 118.097656 C 60.078125 132.117188 58.933594 150.050781 66.40625 165.140625 C 74.996094 182.488281 72.113281 203.324219 59.132812 217.683594 L 55.351562 221.867188 C 31.730469 248 38.15625 289.269531 68.605469 306.96875 L 87.359375 317.875 C 98.492188 324.347656 111.140625 327.753906 124.015625 327.753906 Z M 124.015625 327.753906 " fill-opacity="1" fill-rule="nonzero"/></g><path fill="#032068" d="M 327.761719 287.484375 C 327.992188 305.15625 315.972656 320.078125 309.867188 325.304688 L 300.507812 325.304688 C 307.464844 301.722656 318.964844 290 325.410156 286.097656 C 326.480469 285.449219 327.746094 286.226562 327.761719 287.484375 Z M 327.761719 287.484375 " fill-opacity="1" fill-rule="nonzero"/><path fill="#ffffff" d="M 328.75 229.5 C 338.335938 265.636719 314.171875 308.433594 303.78125 324.363281 L 282.730469 324.363281 C 291.773438 256.183594 306.933594 239.613281 326.101562 228.417969 C 327.128906 227.816406 328.445312 228.347656 328.75 229.5 Z M 328.75 229.5 " fill-opacity="1" fill-rule="nonzero"/><path fill="#032068" d="M 326.570312 229.226562 C 327.078125 228.933594 327.699219 229.199219 327.84375 229.742188 C 332.566406 247.542969 328.988281 267.0625 322.875 284.195312 C 316.875 301.007812 308.472656 315.40625 303.277344 323.425781 L 283.800781 323.425781 C 288.300781 290 294.28125 269.234375 301.449219 255.457031 C 308.664062 241.585938 317.101562 234.761719 326.570312 229.226562 Z M 329.652344 229.261719 C 329.1875 227.496094 327.183594 226.699219 325.628906 227.609375 C 315.933594 233.273438 307.207031 240.332031 299.789062 254.589844 C 292.398438 268.796875 286.328125 290.109375 281.800781 324.242188 L 281.660156 325.304688 L 304.289062 325.304688 L 304.566406 324.878906 C 309.785156 316.878906 318.464844 302.128906 324.636719 284.824219 C 330.808594 267.539062 334.515625 247.59375 329.652344 229.261719 Z M 329.652344 229.261719 " fill-opacity="1" fill-rule="evenodd"/><path fill="#032068" d="M 294.804688 251.734375 C 303.082031 282.015625 293.605469 313.484375 287.410156 325.304688 L 271.96875 325.304688 C 268.496094 288.398438 282.613281 261.558594 291.890625 251.007812 C 292.808594 249.96875 294.4375 250.394531 294.804688 251.734375 Z M 294.804688 251.734375 " fill-opacity="1" fill-rule="nonzero"/><path fill="#032068" d="M 315.644531 255.214844 L 320.679688 241.027344 L 322.441406 241.65625 L 310.90625 274.152344 L 318.484375 271.871094 L 319.023438 273.667969 L 310.128906 276.34375 L 299.636719 305.898438 L 309.078125 302.378906 L 309.730469 304.136719 L 298.816406 308.207031 L 292.96875 324.679688 L 291.203125 324.050781 L 303.082031 290.59375 L 298.691406 278.242188 L 300.453125 277.613281 L 304.074219 287.796875 L 314.582031 258.203125 L 311.308594 247.238281 L 313.101562 246.699219 Z M 315.644531 255.214844 " fill-opacity="1" fill-rule="evenodd"/><path fill="#ffffff" d="M 286.90625 275.914062 L 289.292969 262.75 L 291.136719 263.085938 L 286.289062 289.804688 L 292.585938 286.480469 L 293.457031 288.140625 L 285.867188 292.148438 L 281.710938 315.0625 L 286.914062 310.960938 L 288.070312 312.4375 L 281.207031 317.847656 L 279.90625 325 L 278.066406 324.667969 L 281.394531 306.3125 L 275.90625 299.136719 L 277.390625 297.996094 L 281.847656 303.820312 L 286.488281 278.222656 L 282.042969 273.40625 L 283.417969 272.132812 Z M 286.90625 275.914062 " fill-opacity="1" fill-rule="evenodd"/><path fill="#ffffff" d="M 121.726562 103.613281 L 125.324219 104.484375 C 125.964844 104.640625 126.03125 105.527344 125.417969 105.773438 L 122.066406 107.128906 C 121.863281 107.210938 121.710938 107.382812 121.660156 107.597656 L 120.726562 111.445312 C 120.578125 112.066406 119.734375 112.152344 119.457031 111.578125 L 117.722656 107.972656 C 117.636719 107.796875 117.484375 107.667969 117.296875 107.613281 L 113.066406 106.417969 C 112.4375 106.242188 112.398438 105.367188 113.007812 105.132812 L 116.855469 103.65625 C 117.042969 103.585938 117.191406 103.433594 117.253906 103.246094 L 118.714844 99.003906 C 118.925781 98.382812 119.816406 98.398438 120.003906 99.03125 L 121.234375 103.148438 C 121.304688 103.378906 121.492188 103.554688 121.726562 103.613281 Z M 121.726562 103.613281 " fill-opacity="1" fill-rule="nonzero"/><path fill="#ffffff" d="M 92.957031 139.132812 L 93.886719 139.886719 C 94.398438 140.304688 94.074219 141.132812 93.417969 141.09375 L 92.257812 141.023438 C 92.039062 141.007812 91.828125 141.101562 91.691406 141.273438 L 90.777344 142.398438 C 90.375 142.894531 89.574219 142.609375 89.570312 141.972656 L 89.566406 140.480469 C 89.566406 140.285156 89.480469 140.101562 89.335938 139.972656 L 88.078125 138.871094 C 87.585938 138.441406 87.925781 137.632812 88.578125 137.683594 L 90.074219 137.800781 C 90.277344 137.816406 90.472656 137.746094 90.613281 137.601562 L 91.796875 136.394531 C 92.257812 135.921875 93.050781 136.320312 92.949219 136.972656 L 92.714844 138.503906 C 92.675781 138.742188 92.769531 138.980469 92.957031 139.132812 Z M 92.957031 139.132812 " fill-opacity="1" fill-rule="nonzero"/><path fill="#f4ad5e" d="M 317.539062 194.1875 L 314.839844 197.847656 C 314.679688 198.070312 314.410156 198.175781 314.148438 198.125 L 310.816406 197.460938 C 310.101562 197.320312 309.667969 198.273438 310.222656 198.777344 L 312.839844 201.160156 C 313.03125 201.335938 313.121094 201.605469 313.078125 201.867188 L 312.421875 205.796875 C 312.296875 206.535156 313.15625 206.992188 313.640625 206.449219 L 316.328125 203.429688 C 316.488281 203.25 316.71875 203.164062 316.945312 203.199219 L 320.058594 203.644531 C 320.757812 203.75 321.15625 202.820312 320.621094 202.328125 L 318.308594 200.1875 C 318.121094 200.015625 318.03125 199.753906 318.074219 199.496094 L 318.804688 194.773438 C 318.921875 194.003906 317.992188 193.570312 317.539062 194.1875 Z M 317.539062 194.1875 " fill-opacity="1" fill-rule="nonzero"/><path fill="#ffffff" d="M 154.601562 97.296875 C 154.601562 91.882812 158.988281 87.492188 164.402344 87.492188 L 275.941406 87.492188 C 281.355469 87.492188 285.746094 91.882812 285.746094 97.296875 L 285.746094 315.464844 C 285.746094 320.878906 281.355469 325.269531 275.941406 325.269531 L 164.402344 325.269531 C 158.988281 325.269531 154.601562 320.878906 154.601562 315.464844 Z M 154.601562 97.296875 " fill-opacity="1" fill-rule="nonzero"/><path fill="#032068" d="M 153.78125 97.296875 C 153.78125 91.429688 158.539062 86.671875 164.40625 86.671875 L 275.941406 86.671875 C 281.808594 86.671875 286.5625 91.429688 286.5625 97.296875 L 286.5625 315.464844 C 286.5625 321.332031 281.808594 326.089844 275.941406 326.089844 L 164.40625 326.089844 C 158.539062 326.089844 153.78125 321.332031 153.78125 315.464844 Z M 164.40625 88.308594 C 159.441406 88.308594 155.417969 92.332031 155.417969 97.296875 L 155.417969 315.464844 C 155.417969 320.429688 159.441406 324.453125 164.40625 324.453125 L 275.941406 324.453125 C 280.90625 324.453125 284.929688 320.429688 284.929688 315.464844 L 284.929688 97.296875 C 284.929688 92.332031 280.90625 88.308594 275.941406 88.308594 Z M 164.40625 88.308594 " fill-opacity="1" fill-rule="evenodd"/><path fill="#e7e8ff" d="M 258.359375 174.925781 C 258.359375 196.140625 241.167969 213.335938 219.960938 213.335938 C 198.753906 213.335938 181.5625 196.140625 181.5625 174.925781 C 181.5625 153.710938 198.753906 136.511719 219.960938 136.511719 C 241.167969 136.511719 258.359375 153.710938 258.359375 174.925781 Z M 258.359375 174.925781 " fill-opacity="1" fill-rule="nonzero"/><path fill="#032068" d="M 194.097656 95.460938 L 189.847656 87.488281 L 250.5 87.488281 L 245.503906 95.820312 C 244.027344 98.28125 241.367188 99.789062 238.5 99.789062 L 201.304688 99.789062 C 198.289062 99.789062 195.515625 98.125 194.097656 95.460938 Z M 194.097656 95.460938 " fill-opacity="1" fill-rule="nonzero"/><path fill="#032068" d="M 284.136719 92.410156 L 155.371094 92.410156 C 159.632812 88.144531 163.703125 87.355469 165.207031 87.488281 L 274.300781 87.488281 C 279.546875 87.488281 283.042969 90.769531 284.136719 92.410156 Z M 284.136719 92.410156 " fill-opacity="1" fill-rule="nonzero"/><path fill="#032068" d="M 284.039062 320.609375 L 156.234375 320.609375 C 160.664062 324.941406 163.222656 325.746094 164.785156 325.605469 L 275.488281 325.605469 C 280.9375 325.605469 282.902344 322.273438 284.039062 320.609375 Z M 284.039062 320.609375 " fill-opacity="1" fill-rule="nonzero"/><path fill="#f4ad5e" d="M 173.390625 118.53125 C 173.390625 117.628906 174.121094 116.898438 175.023438 116.898438 L 218.535156 116.898438 C 219.4375 116.898438 220.167969 117.628906 220.167969 118.53125 L 220.167969 120.277344 C 220.167969 121.179688 219.4375 121.910156 218.535156 121.910156 L 175.023438 121.910156 C 174.121094 121.910156 173.390625 121.179688 173.390625 120.277344 Z M 173.390625 118.53125 " fill-opacity="1" fill-rule="nonzero"/><path fill="#032068" d="M 173.390625 228.863281 C 173.390625 227.960938 174.121094 227.230469 175.023438 227.230469 L 218.535156 227.230469 C 219.4375 227.230469 220.167969 227.960938 220.167969 228.863281 L 220.167969 230.609375 C 220.167969 231.511719 219.4375 232.242188 218.535156 232.242188 L 175.023438 232.242188 C 174.121094 232.242188 173.390625 231.511719 173.390625 230.609375 Z M 173.390625 228.863281 " fill-opacity="1" fill-rule="nonzero"/><path fill="#032068" d="M 173.390625 272.179688 C 173.390625 271.277344 174.121094 270.546875 175.023438 270.546875 L 201.167969 270.546875 C 202.070312 270.546875 202.800781 271.277344 202.800781 272.179688 L 202.800781 273.816406 C 202.800781 274.71875 202.070312 275.449219 201.167969 275.449219 L 175.023438 275.449219 C 174.121094 275.449219 173.390625 274.71875 173.390625 273.816406 Z M 173.390625 272.179688 " fill-opacity="1" fill-rule="nonzero"/><path fill="#e7e8ff" d="M 173.390625 241.125 C 173.390625 240.222656 174.121094 239.488281 175.023438 239.488281 L 262.445312 239.488281 C 263.347656 239.488281 264.078125 240.222656 264.078125 241.125 L 264.078125 257.46875 C 264.078125 258.371094 263.347656 259.105469 262.445312 259.105469 L 175.023438 259.105469 C 174.121094 259.105469 173.390625 258.371094 173.390625 257.46875 Z M 173.390625 241.125 " fill-opacity="1" fill-rule="nonzero"/><path fill="#e7e8ff" d="M 173.390625 283.621094 C 173.390625 282.71875 174.121094 281.988281 175.023438 281.988281 L 262.445312 281.988281 C 263.347656 281.988281 264.078125 282.71875 264.078125 283.621094 L 264.078125 299.96875 C 264.078125 300.871094 263.347656 301.601562 262.445312 301.601562 L 175.023438 301.601562 C 174.121094 301.601562 173.390625 300.871094 173.390625 299.96875 Z M 173.390625 283.621094 " fill-opacity="1" fill-rule="nonzero"/><path fill="#032068" d="M 274.90625 99.175781 L 276.539062 99.175781 L 276.539062 105.859375 L 274.90625 105.859375 Z M 274.90625 99.175781 " fill-opacity="1" fill-rule="evenodd"/><path fill="#032068" d="M 270.726562 100.011719 L 272.363281 100.011719 L 272.363281 105.859375 L 270.726562 105.859375 Z M 270.726562 100.011719 " fill-opacity="1" fill-rule="evenodd"/><path fill="#032068" d="M 266.550781 101.679688 L 268.183594 101.679688 L 268.183594 105.859375 L 266.550781 105.859375 Z M 266.550781 101.679688 " fill-opacity="1" fill-rule="evenodd"/><path fill="#032068" d="M 262.375 103.351562 L 264.007812 103.351562 L 264.007812 105.859375 L 262.375 105.859375 Z M 262.375 103.351562 " fill-opacity="1" fill-rule="evenodd"/><path fill="#ffffff" d="M 220.328125 175.386719 C 209.519531 175.386719 200.617188 183.660156 199.417969 194.304688 C 199.269531 195.652344 200.378906 196.753906 201.734375 196.753906 L 238.921875 196.753906 C 240.277344 196.753906 241.390625 195.652344 241.238281 194.304688 C 240.042969 183.660156 231.136719 175.386719 220.328125 175.386719 Z M 220.328125 175.386719 " fill-opacity="1" fill-rule="nonzero"/><path fill="#ffffff" d="M 230.691406 162.820312 C 230.691406 168.371094 226.191406 172.875 220.640625 172.875 C 215.089844 172.875 210.589844 168.371094 210.589844 162.820312 C 210.589844 157.265625 215.089844 152.761719 220.640625 152.761719 C 226.191406 152.761719 230.691406 157.265625 230.691406 162.820312 Z M 230.691406 162.820312 " fill-opacity="1" fill-rule="nonzero"/><path fill="#efcb96" d="M 135.0625 195.386719 L 138.382812 205.660156 C 139.710938 210.484375 135.0625 215.570312 123.996094 215.570312 C 115.144531 215.570312 113.378906 210.511719 113.820312 206.417969 L 116.472656 192.316406 C 114.261719 190.121094 112.492188 188.804688 112.492188 178.277344 C 112.492188 165.113281 119.570312 160.289062 127.980469 160.289062 C 136.390625 160.289062 143.472656 167.300781 143.472656 180.03125 C 143.472656 191 137.570312 194.507812 135.0625 195.386719 Z M 135.0625 195.386719 " fill-opacity="1" fill-rule="nonzero"/><path fill="#032068" d="M 156.0625 185.765625 C 162.648438 192.636719 161.765625 209.546875 160.753906 214.699219 C 150.089844 206.789062 142.875 204.171875 139.136719 203.871094 C 138.535156 203.820312 138.425781 205.21875 138.003906 205.28125 L 134.835938 194.78125 C 139.601562 193.492188 142.632812 189.199219 143.066406 179.324219 C 143.414062 171.425781 139.457031 166.011719 137.433594 164.296875 C 130.5 163.867188 127.035156 172.453125 124.871094 175.890625 C 123.136719 178.636719 121.835938 178.179688 121.402344 177.605469 C 119.238281 172.453125 115.339844 172.023438 114.472656 177.605469 C 113.777344 182.074219 117.070312 184.335938 118.804688 184.90625 L 113.820312 206.796875 C 113.238281 206.828125 112.6875 204.902344 112.6875 204.042969 C 103.429688 205.070312 93.257812 209.96875 90.21875 212 C 88.921875 198.257812 101.472656 187.914062 104.941406 179.324219 C 108.40625 170.738281 103.640625 166.441406 107.105469 160.859375 C 109.675781 156.722656 114.472656 156.136719 117.503906 155.277344 C 120.539062 154.421875 122.269531 150.984375 125.734375 149.265625 C 131.800781 147.121094 137.578125 152.417969 139.167969 156.136719 C 140.175781 155.996094 143.066406 156.394531 146.53125 159.144531 C 156.496094 166.011719 147.832031 177.175781 156.0625 185.765625 Z M 156.0625 185.765625 " fill-opacity="1" fill-rule="nonzero"/><path fill="#032068" d="M 126.261719 194.839844 C 131.421875 196.046875 134.433594 195.59375 135.296875 195.21875 L 136.585938 199.375 C 131.078125 199.980469 127.40625 196.601562 126.261719 194.839844 Z M 126.261719 194.839844 " fill-opacity="1" fill-rule="nonzero"/><path fill="#f4ad5e" d="M 125.101562 211.59375 C 133.792969 211.59375 137.871094 206.238281 138.824219 203.5625 C 155.40625 203.5625 169.125 215.039062 175.414062 223.070312 C 181.707031 231.105469 205.148438 273.570312 199.429688 290.785156 C 194.855469 304.558594 183.800781 306.660156 177.703125 305.703125 L 178.714844 323.960938 C 178.785156 325.265625 177.75 326.363281 176.449219 326.363281 L 92.511719 326.363281 C 83.746094 326.9375 64.613281 327.167969 58.207031 323.492188 C 50.203125 318.902344 42.769531 295.375 58.207031 248.894531 C 70.558594 211.710938 99.5625 203.179688 112.523438 203.5625 C 113.09375 206.238281 116.410156 211.59375 125.101562 211.59375 Z M 125.101562 211.59375 " fill-opacity="1" fill-rule="nonzero"/><path fill="#032068" d="M 83.464844 326.398438 C 69.683594 309.535156 55.109375 303.519531 49.546875 302.621094 C 49.546875 308.023438 52.238281 318.292969 57.082031 323.15625 C 60.960938 327.046875 76.289062 326.9375 83.464844 326.398438 Z M 83.464844 326.398438 " fill-opacity="1" fill-rule="nonzero"/><path fill="#032068" d="M 190.074219 303.699219 C 199.121094 300.242188 200.664062 287.847656 200.304688 282.085938 C 192.121094 285.976562 181.101562 299.199219 176.613281 305.320312 C 177.332031 306.222656 181.03125 307.160156 190.074219 303.699219 Z M 190.074219 303.699219 " fill-opacity="1" fill-rule="nonzero"/><path fill="#032068" d="M 123.960938 264.390625 C 119.957031 266.109375 90.226562 280.074219 76.503906 286.769531 C 78.21875 283.898438 85.082031 279.308594 86.796875 277.585938 C 88.511719 275.867188 94.800781 255.78125 94.800781 258.648438 C 94.800781 261.519531 91.371094 274.71875 93.085938 274.71875 C 94.800781 274.71875 118.8125 264.390625 123.960938 264.390625 Z M 123.960938 264.390625 " fill-opacity="1" fill-rule="nonzero"/><path fill="#032068" d="M 135.964844 281.03125 C 111.722656 313.625 91.941406 325.214844 85.082031 326.9375 L 97.085938 326.9375 C 117.671875 310.871094 131.582031 289.636719 135.964844 281.03125 Z M 135.964844 281.03125 " fill-opacity="1" fill-rule="nonzero"/><path fill="#032068" d="M 165.695312 275.292969 C 166.609375 286.308594 174.464844 300.160156 178.273438 305.707031 L 178.273438 310.871094 C 169.585938 301.230469 166.269531 283.132812 165.695312 275.292969 Z M 165.695312 275.292969 " fill-opacity="1" fill-rule="nonzero"/><path fill="#032068" d="M 176.558594 259.796875 C 179.761719 261.632812 185.515625 265.917969 187.996094 267.832031 L 178.847656 256.929688 C 178.390625 258.765625 177.132812 259.605469 176.558594 259.796875 Z M 176.558594 259.796875 " fill-opacity="1" fill-rule="nonzero"/><path fill="#ffffff" d="M 142.761719 238.625 L 138.355469 281.75 C 138.304688 282.25 138.746094 282.664062 139.242188 282.574219 L 160.015625 278.832031 C 160.335938 278.773438 160.582031 278.519531 160.628906 278.195312 L 166.703125 237.207031 C 166.773438 236.726562 166.382812 236.304688 165.898438 236.335938 L 143.460938 237.945312 C 143.09375 237.972656 142.800781 238.257812 142.761719 238.625 Z M 142.761719 238.625 " fill-opacity="1" fill-rule="nonzero"/><path fill="#032068" d="M 165.847656 235.582031 C 166.8125 235.511719 167.589844 236.355469 167.449219 237.316406 L 161.378906 278.308594 C 161.28125 278.953125 160.789062 279.460938 160.148438 279.578125 L 139.375 283.320312 C 138.382812 283.5 137.5 282.675781 137.601562 281.671875 L 142.011719 238.546875 C 142.085938 237.816406 142.671875 237.242188 143.40625 237.191406 Z M 165.953125 237.09375 L 143.511719 238.703125 L 139.105469 281.828125 L 159.882812 278.085938 Z M 165.953125 237.09375 " fill-opacity="1" fill-rule="evenodd"/><path fill="#efcb96" d="M 172.558594 259.796875 L 165.695312 270.128906 C 156.550781 270.703125 154.832031 265.535156 156.550781 257.503906 C 157.921875 251.074219 163.027344 251 165.125 251.765625 L 166.269531 247.175781 C 172.558594 252.339844 172.558594 257.3125 172.558594 259.796875 Z M 172.558594 259.796875 " fill-opacity="1" fill-rule="nonzero"/><path fill="#efcb96" d="M 132.535156 258.652344 C 131.164062 262.324219 128.53125 264.773438 127.390625 265.535156 L 134.820312 277.015625 C 137.109375 274.71875 139.96875 274.71875 146.257812 271.847656 C 152.546875 268.980469 154.261719 258.652344 152.546875 252.914062 C 151.175781 248.320312 143.207031 251.765625 139.96875 254.058594 L 140.539062 247.746094 C 136.539062 249.46875 134.25 254.058594 132.535156 258.652344 Z M 132.535156 258.652344 " fill-opacity="1" fill-rule="nonzero"/><path fill="#ffffff" d="M 331.890625 151.222656 C 331.890625 166.570312 319.453125 179.011719 304.109375 179.011719 C 288.769531 179.011719 276.332031 166.570312 276.332031 151.222656 C 276.332031 135.875 288.769531 123.4375 304.109375 123.4375 C 319.453125 123.4375 331.890625 135.875 331.890625 151.222656 Z M 331.890625 151.222656 " fill-opacity="1" fill-rule="nonzero"/><path fill="#032068" d="M 304.109375 124.117188 C 289.148438 124.117188 277.015625 136.253906 277.015625 151.222656 C 277.015625 166.191406 289.148438 178.328125 304.109375 178.328125 C 319.074219 178.328125 331.207031 166.191406 331.207031 151.222656 C 331.207031 136.253906 319.074219 124.117188 304.109375 124.117188 Z M 275.648438 151.222656 C 275.648438 135.5 288.394531 122.753906 304.109375 122.753906 C 319.828125 122.753906 332.574219 135.5 332.574219 151.222656 C 332.574219 166.949219 319.828125 179.695312 304.109375 179.695312 C 288.394531 179.695312 275.648438 166.949219 275.648438 151.222656 Z M 275.648438 151.222656 " fill-opacity="1" fill-rule="evenodd"/><path fill="#032068" d="M 304.441406 134.023438 C 299.144531 134.023438 294.851562 138.386719 294.851562 143.773438 L 294.851562 150.449219 C 294.851562 151.242188 295.492188 151.886719 296.285156 151.886719 C 297.074219 151.886719 297.71875 151.242188 297.71875 150.449219 L 297.71875 143.589844 C 297.71875 139.816406 300.726562 136.753906 304.441406 136.753906 C 308.152344 136.753906 311.164062 139.816406 311.164062 143.589844 L 311.164062 150.09375 C 311.164062 150.886719 311.804688 151.527344 312.597656 151.527344 C 313.386719 151.527344 314.03125 150.886719 314.03125 150.09375 L 314.03125 143.773438 C 314.03125 138.386719 309.738281 134.023438 304.441406 134.023438 Z M 304.441406 134.023438 " fill-opacity="1" fill-rule="evenodd"/><path fill="#f4ad5e" d="M 292.203125 150.625 C 292.203125 149.496094 293.121094 148.578125 294.253906 148.578125 L 314.625 148.578125 C 315.757812 148.578125 316.675781 149.496094 316.675781 150.625 L 316.675781 165.714844 C 316.675781 166.847656 315.757812 167.761719 314.625 167.761719 L 294.253906 167.761719 C 293.121094 167.761719 292.203125 166.847656 292.203125 165.714844 Z M 292.203125 150.625 " fill-opacity="1" fill-rule="nonzero"/><path fill="#ffffff" d="M 306 158.964844 C 306.566406 158.507812 306.929688 157.808594 306.929688 157.023438 C 306.929688 155.648438 305.816406 154.53125 304.441406 154.53125 C 303.0625 154.53125 301.949219 155.648438 301.949219 157.023438 C 301.949219 157.878906 302.378906 158.632812 303.035156 159.082031 L 302.480469 161.414062 C 302.398438 161.761719 302.660156 162.097656 303.019531 162.097656 L 306.042969 162.097656 C 306.402344 162.097656 306.664062 161.761719 306.582031 161.414062 Z M 306 158.964844 " fill-opacity="1" fill-rule="evenodd"/></svg>