<svg xmlns="http://www.w3.org/2000/svg" xmlns:xlink="http://www.w3.org/1999/xlink" width="500" zoomAndPan="magnify" viewBox="0 0 375 374.999991" height="500" preserveAspectRatio="xMidYMid meet" version="1.0"><path fill="#231f20" d="M 290.285156 136.210938 C 286.964844 136.210938 283.644531 134.964844 281.566406 132.058594 L 196.042969 31.144531 L 110.515625 132.058594 C 106.363281 137.042969 98.890625 137.457031 94.324219 133.304688 C 89.34375 129.152344 88.929688 121.675781 93.078125 116.695312 L 187.324219 5.398438 C 191.890625 0 200.609375 0 205.175781 5.398438 L 299.417969 116.695312 C 303.570312 121.675781 303.15625 129.152344 298.171875 133.304688 C 295.683594 135.382812 292.777344 136.210938 290.285156 136.210938 Z M 290.285156 136.210938 " fill-opacity="1" fill-rule="nonzero"/><path fill="#231f20" d="M 196.042969 375 C 189.8125 375 184.417969 369.601562 184.417969 363.371094 L 184.417969 12.875 C 184.417969 6.644531 189.8125 1.246094 196.042969 1.246094 C 202.269531 1.246094 207.667969 6.644531 207.667969 12.875 L 207.667969 363.371094 C 207.667969 369.601562 202.269531 375 196.042969 375 Z M 196.042969 375 " fill-opacity="1" fill-rule="nonzero"/></svg>