<svg xmlns="http://www.w3.org/2000/svg" xmlns:xlink="http://www.w3.org/1999/xlink" width="500" zoomAndPan="magnify" viewBox="0 0 375 374.999991" height="500" preserveAspectRatio="xMidYMid meet" version="1.0"><path fill="#000000" d="M 36.566406 74.59375 C 36.566406 65.246094 36.765625 56.5 36.464844 47.753906 C 36.363281 40.816406 39.28125 37.5 46.121094 38.503906 C 73.378906 42.324219 101.144531 44.335938 127.699219 50.871094 C 153.652344 57.304688 174.371094 73.589844 187.148438 99.222656 C 210.382812 57.304688 249.714844 46.042969 292.0625 40.71875 C 304.234375 39.207031 316.605469 39.308594 328.878906 38.503906 C 335.921875 38.003906 338.535156 41.117188 338.234375 48.054688 C 337.832031 56.800781 338.132812 65.546875 338.132812 74.796875 C 348.09375 76.304688 357.144531 77.914062 366.199219 78.917969 C 372.234375 79.621094 374.949219 82.132812 374.847656 88.46875 C 374.75 158.335938 374.75 228.203125 374.847656 298.167969 C 374.847656 306.714844 370.824219 307.21875 363.882812 306.210938 C 326.765625 300.382812 289.75 299.777344 253.035156 309.929688 C 231.308594 315.964844 211.390625 325.109375 193.585938 339.285156 C 191.070312 341.296875 184.53125 342 182.320312 340.292969 C 143.089844 309.027344 97.320312 300.984375 49.039062 302.59375 C 36.0625 302.996094 22.984375 304.605469 10.109375 306.511719 C 2.96875 307.621094 0.0507812 305.609375 0.152344 298.472656 C 0.25 228.605469 0.25 158.738281 0.152344 88.769531 C 0.152344 82.535156 2.464844 79.824219 8.699219 79.117188 C 17.652344 77.8125 26.605469 76.203125 36.566406 74.59375 Z M 45.917969 258.359375 C 96.917969 260.671875 146.710938 264.59375 183.226562 310.234375 C 183.226562 304 183.226562 300.382812 183.226562 296.761719 C 183.226562 240.769531 182.921875 184.773438 183.425781 128.78125 C 183.628906 107.96875 175.882812 91.183594 160.191406 78.515625 C 126.894531 51.273438 87.0625 48.257812 45.917969 47.351562 C 45.917969 118.222656 45.917969 187.488281 45.917969 258.359375 Z M 328.277344 258.359375 C 328.277344 187.285156 328.277344 117.621094 328.277344 47.953125 C 291.863281 45.644531 249.816406 54.691406 225.371094 70.273438 C 203.542969 84.246094 191.171875 102.945312 191.574219 130.289062 C 192.378906 185.175781 191.773438 240.164062 191.773438 295.054688 C 191.773438 299.375 191.773438 303.597656 191.773438 310.03125 C 228.390625 264.492188 277.980469 260.773438 328.277344 258.359375 Z M 338.03125 83.84375 C 338.03125 89.773438 338.03125 93.894531 338.03125 98.019531 C 338.03125 150.191406 337.730469 202.46875 338.234375 254.640625 C 338.335938 264.894531 335.117188 267.710938 325.15625 267.710938 C 310.269531 267.808594 295.183594 268.816406 280.394531 271.027344 C 253.839844 275.046875 228.589844 282.988281 209.378906 303.195312 C 203.644531 309.128906 199.621094 316.667969 194.792969 323.503906 C 248.507812 290.933594 305.742188 289.121094 365.09375 296.761719 C 365.09375 226.59375 365.09375 157.328125 365.09375 87.363281 C 356.339844 86.257812 347.992188 85.148438 338.03125 83.84375 Z M 179.402344 323.503906 C 175.78125 317.972656 173.265625 311.039062 168.335938 307.015625 C 157.171875 297.867188 145.703125 288.519531 132.828125 282.285156 C 107.882812 270.222656 80.421875 268.3125 53.0625 267.609375 C 36.664062 267.207031 36.566406 267.105469 36.566406 250.117188 C 36.566406 199.050781 36.566406 147.980469 36.566406 96.914062 C 36.566406 92.789062 36.566406 88.769531 36.566406 84.347656 C 32.238281 84.546875 29.523438 84.546875 26.808594 84.949219 C 8.699219 87.261719 8.699219 87.261719 8.699219 105.257812 C 8.699219 164.769531 8.699219 224.28125 8.699219 283.792969 C 8.699219 287.816406 8.699219 291.835938 8.699219 296.964844 C 69.054688 289.121094 126.191406 291.03125 179.402344 323.503906 Z M 179.402344 323.503906 " fill-opacity="1" fill-rule="nonzero"/></svg>