<svg xmlns="http://www.w3.org/2000/svg" xmlns:xlink="http://www.w3.org/1999/xlink" width="500" zoomAndPan="magnify" viewBox="0 0 375 374.999991" height="500" preserveAspectRatio="xMidYMid meet" version="1.0"><defs><clipPath id="80808336cb"><path d="M 258 159 L 288.640625 159 L 288.640625 195 L 258 195 Z M 258 159 " clip-rule="nonzero"/></clipPath><clipPath id="2b2b816f25"><path d="M 86.140625 159 L 117 159 L 117 195 L 86.140625 195 Z M 86.140625 159 " clip-rule="nonzero"/></clipPath></defs><path fill="#545454" d="M 188.46875 186.265625 C 158.21875 186.265625 128 175.414062 103.46875 153.742188 C 102.664062 153.003906 102.570312 151.765625 103.3125 150.960938 C 104.023438 150.128906 105.289062 150.066406 106.09375 150.777344 C 153.03125 192.292969 221.625 192.878906 269.210938 152.167969 C 270.042969 151.457031 271.28125 151.550781 271.992188 152.382812 C 272.703125 153.21875 272.609375 154.457031 271.773438 155.167969 C 247.519531 175.910156 217.980469 186.265625 188.46875 186.265625 " fill-opacity="1" fill-rule="nonzero"/><path fill="#545454" d="M 207.351562 225.460938 C 206.359375 225.460938 205.527344 224.71875 205.402344 223.730469 L 200.148438 183.945312 C 200.027344 182.863281 200.800781 181.875 201.878906 181.71875 C 202.929688 181.566406 203.949219 182.339844 204.074219 183.421875 L 209.328125 223.234375 C 209.449219 224.316406 208.679688 225.308594 207.597656 225.429688 C 207.503906 225.460938 207.441406 225.460938 207.351562 225.460938 " fill-opacity="1" fill-rule="nonzero"/><path fill="#545454" d="M 167.429688 225.460938 C 167.335938 225.460938 167.273438 225.460938 167.179688 225.429688 C 166.097656 225.308594 165.328125 224.316406 165.449219 223.234375 L 170.703125 183.421875 C 170.828125 182.339844 171.816406 181.566406 172.898438 181.71875 C 173.980469 181.875 174.75 182.863281 174.628906 183.945312 L 169.375 223.730469 C 169.25 224.71875 168.417969 225.460938 167.429688 225.460938 " fill-opacity="1" fill-rule="nonzero"/><path fill="#545454" d="M 252.863281 213.3125 C 252.152344 213.3125 251.472656 212.941406 251.101562 212.261719 L 231.976562 176.804688 C 231.449219 175.816406 231.820312 174.640625 232.78125 174.117188 C 233.738281 173.621094 234.941406 173.929688 235.46875 174.917969 L 254.59375 210.375 C 255.121094 211.367188 254.75 212.539062 253.792969 213.066406 C 253.480469 213.21875 253.171875 213.3125 252.863281 213.3125 " fill-opacity="1" fill-rule="nonzero"/><path fill="#545454" d="M 121.882812 213.28125 C 121.574219 213.28125 121.265625 213.1875 120.957031 213.035156 C 120 212.507812 119.628906 211.304688 120.152344 210.34375 L 139.867188 174.023438 C 140.484375 173.125 141.71875 172.878906 142.617188 173.496094 C 143.511719 174.085938 143.757812 175.320312 143.140625 176.25 L 142.679688 176.929688 L 123.644531 212.230469 C 123.273438 212.910156 122.59375 213.28125 121.882812 213.28125 " fill-opacity="1" fill-rule="nonzero"/><g clip-path="url(#80808336cb)"><path fill="#545454" d="M 286.265625 194.085938 C 285.710938 194.085938 285.152344 193.867188 284.78125 193.40625 L 258.519531 163.050781 C 257.808594 162.214844 257.902344 160.976562 258.734375 160.265625 C 259.539062 159.523438 260.804688 159.617188 261.515625 160.453125 L 287.75 190.839844 C 288.492188 191.644531 288.398438 192.910156 287.5625 193.621094 C 287.191406 193.929688 286.730469 194.085938 286.265625 194.085938 " fill-opacity="1" fill-rule="nonzero"/></g><g clip-path="url(#2b2b816f25)"><path fill="#545454" d="M 88.511719 194.085938 C 88.046875 194.085938 87.585938 193.929688 87.214844 193.621094 C 86.378906 192.910156 86.289062 191.644531 87.027344 190.839844 L 113.261719 160.453125 C 113.972656 159.617188 115.207031 159.523438 116.042969 160.265625 C 116.878906 160.976562 116.96875 162.214844 116.257812 163.050781 L 89.996094 193.40625 C 89.625 193.867188 89.066406 194.085938 88.511719 194.085938 " fill-opacity="1" fill-rule="nonzero"/></g></svg>