<svg xmlns="http://www.w3.org/2000/svg" xmlns:xlink="http://www.w3.org/1999/xlink" width="500" zoomAndPan="magnify" viewBox="0 0 375 374.999991" height="500" preserveAspectRatio="xMidYMid meet" version="1.0"><rect x="-37.5" width="450" fill="#ffffff" y="-37.499999" height="449.999989" fill-opacity="1"/><rect x="-37.5" width="450" fill="#ffffff" y="-37.499999" height="449.999989" fill-opacity="1"/><path fill="#484848" d="M 284.625 257.941406 C 281.984375 251.65625 282.972656 246.035156 286.109375 239.914062 C 307.402344 198.070312 305.09375 157.050781 277.363281 119.503906 C 249.464844 81.792969 210.347656 67.238281 164.625 76.664062 C 120.058594 85.761719 90.347656 114.046875 78.957031 158.371094 C 67.402344 203.03125 80.113281 242.394531 115.105469 272.167969 C 150.429688 302.269531 191.035156 306.734375 233.785156 288.542969 C 242.699219 284.738281 250.953125 284.242188 260.195312 286.722656 C 274.226562 290.691406 287.597656 296.480469 302.617188 301.609375 C 296.34375 286.226562 290.566406 272.167969 284.625 257.941406 Z M 229.496094 281.59375 C 169.578125 308.058594 102.5625 275.144531 86.386719 211.464844 C 72.023438 155.066406 107.84375 97.175781 165.121094 84.441406 C 221.902344 71.871094 279.34375 109.582031 289.90625 166.644531 C 294.199219 189.964844 291.558594 212.292969 280.332031 233.132812 C 274.722656 243.71875 273.566406 253.644531 278.519531 264.558594 C 281.488281 271.175781 283.632812 278.289062 286.769531 286.558594 C 277.363281 283.746094 269.769531 281.429688 262.175781 279.113281 C 250.953125 275.476562 240.386719 276.632812 229.496094 281.59375 Z M 229.496094 281.59375 " fill-opacity="1" fill-rule="nonzero"/></svg>