<svg xmlns="http://www.w3.org/2000/svg" xmlns:xlink="http://www.w3.org/1999/xlink" width="500" zoomAndPan="magnify" viewBox="0 0 375 374.999991" height="500" preserveAspectRatio="xMidYMid meet" version="1.0"><path fill="#77536f" d="M 172.460938 78.492188 C 164.867188 81.425781 158.472656 85.652344 153.457031 91.058594 C 149.417969 95.410156 146.261719 100.53125 144.082031 106.269531 C 143.710938 107.246094 144.199219 108.335938 145.175781 108.707031 C 145.394531 108.789062 145.625 108.832031 145.847656 108.832031 C 146.609375 108.832031 147.324219 108.363281 147.613281 107.613281 C 152.183594 95.578125 161.003906 86.964844 173.824219 82.015625 C 174.796875 81.640625 175.277344 80.546875 174.902344 79.574219 C 174.527344 78.601562 173.433594 78.121094 172.460938 78.492188 " fill-opacity="1" fill-rule="nonzero"/><path fill="#77536f" d="M 187.128906 74.636719 C 185.402344 74.910156 183.703125 75.234375 182.066406 75.601562 C 181.050781 75.832031 180.410156 76.84375 180.640625 77.859375 C 180.835938 78.738281 181.617188 79.335938 182.480469 79.335938 C 182.617188 79.335938 182.757812 79.320312 182.894531 79.289062 C 184.453125 78.941406 186.078125 78.628906 187.722656 78.367188 C 188.753906 78.203125 189.453125 77.234375 189.289062 76.203125 C 189.128906 75.175781 188.160156 74.472656 187.128906 74.636719 " fill-opacity="1" fill-rule="nonzero"/><path fill="#77536f" d="M 279.648438 147.761719 C 277.949219 148.851562 275.6875 148.363281 274.59375 146.664062 C 273.5 144.964844 273.992188 142.703125 275.691406 141.605469 C 277.390625 140.515625 279.65625 141.007812 280.746094 142.707031 C 281.839844 144.40625 281.347656 146.667969 279.648438 147.761719 Z M 270.488281 118.394531 C 267.308594 120.4375 263.066406 119.519531 261.019531 116.335938 C 258.976562 113.152344 259.898438 108.917969 263.082031 106.871094 C 266.257812 104.824219 270.5 105.746094 272.546875 108.925781 C 274.589844 112.109375 273.667969 116.351562 270.488281 118.394531 Z M 269.5625 164.421875 C 266.726562 166.242188 262.945312 165.421875 261.121094 162.585938 C 259.300781 159.746094 260.121094 155.96875 262.957031 154.144531 C 265.792969 152.320312 269.574219 153.140625 271.394531 155.980469 C 273.222656 158.816406 272.398438 162.59375 269.5625 164.421875 Z M 248.6875 141.707031 C 245.289062 136.417969 246.816406 129.375 252.105469 125.976562 C 257.394531 122.574219 264.441406 124.105469 267.839844 129.394531 C 271.238281 134.679688 269.707031 141.726562 264.421875 145.125 C 259.132812 148.523438 252.089844 146.996094 248.6875 141.707031 Z M 228.273438 150.257812 C 223 152.105469 217.800781 153.945312 212.738281 152.09375 C 209.488281 150.910156 206.855469 148.3125 203.515625 147.417969 C 195.054688 145.148438 187.628906 154.457031 178.882812 154.96875 C 170.382812 155.46875 163.414062 147.640625 154.929688 146.902344 C 151.816406 146.628906 148.832031 147.332031 146.03125 148.636719 C 141.414062 141.167969 138.742188 132.363281 138.742188 122.9375 C 138.742188 95.910156 160.652344 74.007812 187.675781 74.007812 C 214.699219 74.007812 236.605469 95.910156 236.605469 122.9375 C 236.605469 133.054688 233.53125 142.457031 228.273438 150.257812 Z M 227.613281 166.132812 C 227.328125 169.679688 226.550781 173.429688 225.269531 177.214844 C 224.628906 179.101562 223.871094 181.003906 222.960938 182.890625 C 222.84375 183.125 222.730469 183.363281 222.613281 183.597656 L 222.527344 183.773438 L 222.488281 183.851562 L 222.46875 183.894531 L 222.421875 183.976562 L 222.246094 184.308594 C 222.015625 184.753906 221.777344 185.199219 221.542969 185.648438 L 221.367188 185.984375 L 221.171875 186.332031 C 221.039062 186.5625 220.910156 186.796875 220.777344 187.027344 C 220.511719 187.488281 220.253906 187.964844 219.988281 188.421875 C 217.84375 192.0625 215.449219 195.644531 213.054688 199.246094 C 210.667969 202.847656 208.277344 206.484375 206.230469 210.269531 C 205.699219 211.210938 205.234375 212.175781 204.75 213.132812 C 204.628906 213.371094 204.515625 213.613281 204.40625 213.859375 L 204.078125 214.585938 C 203.859375 215.078125 203.621094 215.554688 203.4375 216.050781 C 202.609375 218.007812 201.921875 220.054688 201.390625 222.046875 L 201.195312 222.808594 L 201.097656 223.191406 L 201.015625 223.574219 C 200.90625 224.085938 200.796875 224.601562 200.6875 225.109375 C 200.597656 225.625 200.511719 226.136719 200.421875 226.648438 C 200.335938 227.160156 200.285156 227.675781 200.210938 228.1875 C 199.960938 230.246094 199.839844 232.292969 199.84375 234.3125 C 199.863281 236.328125 199.996094 238.316406 200.222656 240.257812 C 200.457031 242.191406 200.8125 244.070312 201.226562 245.886719 C 201.660156 247.703125 202.179688 249.441406 202.746094 251.105469 C 202.894531 251.515625 203.050781 251.925781 203.199219 252.332031 C 203.273438 252.53125 203.351562 252.730469 203.421875 252.933594 C 203.5 253.136719 203.585938 253.328125 203.667969 253.523438 C 203.828125 253.917969 203.988281 254.304688 204.148438 254.691406 C 204.316406 255.074219 204.492188 255.445312 204.664062 255.816406 C 204.988281 256.566406 205.367188 257.273438 205.714844 257.972656 C 205.890625 258.324219 206.085938 258.65625 206.269531 258.992188 C 206.453125 259.328125 206.632812 259.660156 206.820312 259.984375 C 207.011719 260.300781 207.203125 260.617188 207.390625 260.929688 C 207.578125 261.242188 207.757812 261.550781 207.957031 261.84375 C 208.152344 262.136719 208.34375 262.433594 208.53125 262.71875 C 208.628906 262.863281 208.722656 263.003906 208.8125 263.144531 C 208.910156 263.285156 209.007812 263.417969 209.105469 263.554688 C 210.640625 265.734375 212.140625 267.523438 213.457031 268.917969 C 213.78125 269.273438 214.113281 269.585938 214.410156 269.890625 C 214.714844 270.195312 214.988281 270.484375 215.269531 270.734375 C 215.542969 270.988281 215.792969 271.222656 216.027344 271.4375 C 216.257812 271.652344 216.46875 271.851562 216.671875 272.015625 C 217.457031 272.683594 217.875 273.039062 217.875 273.039062 C 217.875 273.039062 217.4375 272.707031 216.617188 272.074219 C 216.410156 271.917969 216.191406 271.734375 215.949219 271.53125 C 215.707031 271.328125 215.441406 271.101562 215.152344 270.863281 C 214.859375 270.625 214.570312 270.347656 214.25 270.058594 C 213.9375 269.765625 213.589844 269.46875 213.246094 269.128906 C 211.851562 267.792969 210.25 266.066406 208.589844 263.933594 C 208.484375 263.804688 208.378906 263.671875 208.273438 263.535156 C 208.171875 263.394531 208.070312 263.257812 207.964844 263.117188 C 207.761719 262.835938 207.550781 262.550781 207.339844 262.257812 C 207.125 261.972656 206.925781 261.667969 206.71875 261.363281 C 206.515625 261.054688 206.304688 260.746094 206.09375 260.429688 C 205.886719 260.109375 205.691406 259.78125 205.484375 259.453125 C 205.28125 259.117188 205.0625 258.792969 204.871094 258.441406 C 204.480469 257.746094 204.058594 257.046875 203.683594 256.296875 C 203.496094 255.929688 203.296875 255.554688 203.109375 255.175781 C 202.925781 254.792969 202.742188 254.402344 202.554688 254.007812 C 202.464844 253.8125 202.367188 253.617188 202.277344 253.414062 C 202.191406 253.214844 202.101562 253.015625 202.015625 252.808594 C 201.84375 252.402344 201.660156 251.996094 201.492188 251.578125 C 200.824219 249.902344 200.203125 248.140625 199.664062 246.296875 C 199.144531 244.449219 198.683594 242.527344 198.339844 240.535156 C 198.007812 238.539062 197.765625 236.480469 197.644531 234.375 C 197.535156 232.269531 197.558594 230.121094 197.710938 227.945312 C 197.761719 227.402344 197.789062 226.859375 197.855469 226.3125 C 197.917969 225.769531 197.988281 225.222656 198.054688 224.671875 C 198.140625 224.128906 198.230469 223.582031 198.320312 223.035156 L 198.386719 222.625 L 198.46875 222.214844 L 198.636719 221.394531 C 199.109375 219.175781 199.71875 217.042969 200.496094 214.914062 C 200.667969 214.375 200.894531 213.859375 201.097656 213.332031 L 201.40625 212.542969 C 201.507812 212.28125 201.613281 212.019531 201.730469 211.761719 C 202.183594 210.734375 202.628906 209.695312 203.128906 208.6875 C 205.074219 204.625 207.34375 200.78125 209.558594 197.046875 C 211.785156 193.316406 213.953125 189.691406 215.824219 186.117188 C 216.054688 185.671875 216.265625 185.234375 216.492188 184.796875 C 216.601562 184.578125 216.710938 184.359375 216.820312 184.144531 L 216.984375 183.816406 L 217.144531 183.46875 C 217.359375 183.007812 217.570312 182.554688 217.785156 182.097656 L 217.941406 181.757812 L 217.980469 181.671875 L 218 181.632812 C 218.023438 181.582031 217.992188 181.648438 218 181.625 L 218.070312 181.460938 C 218.164062 181.246094 218.257812 181.027344 218.347656 180.8125 C 219.082031 179.082031 219.679688 177.335938 220.171875 175.617188 C 221.148438 172.179688 221.660156 168.839844 221.75 165.796875 C 221.851562 162.75 221.519531 160.007812 220.929688 157.71875 C 220.65625 156.664062 220.324219 155.707031 219.96875 154.84375 C 222.097656 154.546875 224.203125 153.941406 226.277344 153.253906 C 226.589844 154.214844 226.871094 155.230469 227.085938 156.308594 C 227.6875 159.246094 227.90625 162.585938 227.613281 166.132812 Z M 189.871094 196.203125 L 190.03125 196.609375 L 190.183594 197.058594 C 190.28125 197.359375 190.378906 197.65625 190.476562 197.957031 L 190.625 198.40625 L 190.703125 198.632812 L 190.761719 198.855469 L 191 199.75 C 191.628906 202.144531 192.007812 204.625 192.121094 207.109375 C 192.230469 209.601562 192.078125 212.101562 191.703125 214.546875 C 191.335938 216.992188 190.746094 219.386719 190.007812 221.703125 C 189.652344 222.800781 189.285156 223.882812 188.871094 224.949219 C 188.972656 225.253906 189.082031 225.558594 189.1875 225.859375 C 189.382812 226.417969 189.574219 226.976562 189.765625 227.527344 C 191.304688 231.972656 192.75 236.375 193.929688 240.726562 C 195.101562 245.066406 196 249.347656 196.4375 253.464844 C 196.5625 254.496094 196.628906 255.511719 196.699219 256.515625 C 196.722656 257.015625 196.746094 257.519531 196.769531 258.011719 C 196.789062 258.503906 196.78125 258.996094 196.789062 259.484375 C 196.792969 261.429688 196.710938 263.3125 196.503906 265.101562 C 196.484375 265.328125 196.457031 265.550781 196.4375 265.773438 C 196.410156 265.996094 196.375 266.214844 196.347656 266.429688 C 196.28125 266.871094 196.222656 267.300781 196.160156 267.726562 C 196.085938 268.148438 196.007812 268.570312 195.929688 268.984375 C 195.890625 269.191406 195.855469 269.398438 195.820312 269.601562 C 195.777344 269.804688 195.730469 270.003906 195.683594 270.207031 C 195.59375 270.605469 195.507812 271 195.421875 271.390625 C 195.332031 271.777344 195.21875 272.15625 195.121094 272.53125 C 195.023438 272.90625 194.929688 273.277344 194.820312 273.636719 C 194.710938 273.996094 194.601562 274.351562 194.492188 274.699219 C 193.617188 277.484375 192.617188 279.824219 191.738281 281.714844 C 191.277344 282.652344 190.882812 283.496094 190.492188 284.203125 C 190.113281 284.917969 189.796875 285.53125 189.507812 286.011719 C 188.953125 286.980469 188.65625 287.492188 188.65625 287.492188 C 188.65625 287.492188 188.929688 286.964844 189.445312 285.976562 C 189.710938 285.488281 190.003906 284.863281 190.351562 284.132812 C 190.710938 283.414062 191.070312 282.554688 191.488281 281.601562 C 192.285156 279.683594 193.179688 277.320312 193.929688 274.535156 C 194.023438 274.1875 194.113281 273.832031 194.210938 273.476562 C 194.300781 273.113281 194.375 272.742188 194.460938 272.371094 C 194.539062 271.996094 194.636719 271.621094 194.703125 271.234375 C 194.773438 270.847656 194.847656 270.453125 194.917969 270.054688 C 194.953125 269.855469 194.996094 269.660156 195.023438 269.457031 C 195.054688 269.253906 195.082031 269.054688 195.109375 268.847656 C 195.167969 268.4375 195.226562 268.023438 195.285156 267.605469 C 195.328125 267.183594 195.371094 266.757812 195.414062 266.328125 C 195.433594 266.109375 195.457031 265.894531 195.472656 265.675781 C 195.488281 265.457031 195.5 265.238281 195.515625 265.015625 C 195.644531 263.253906 195.644531 261.414062 195.5625 259.515625 C 195.535156 259.039062 195.523438 258.558594 195.480469 258.078125 C 195.4375 257.597656 195.398438 257.113281 195.355469 256.621094 C 195.246094 255.648438 195.140625 254.652344 194.976562 253.660156 C 194.378906 249.65625 193.324219 245.507812 191.996094 241.289062 C 190.683594 237.140625 189.101562 232.914062 187.425781 228.640625 C 185.75 232.914062 184.164062 237.140625 182.855469 241.289062 C 181.523438 245.507812 180.46875 249.65625 179.875 253.660156 C 179.710938 254.652344 179.605469 255.648438 179.496094 256.621094 C 179.453125 257.113281 179.410156 257.597656 179.371094 258.078125 C 179.328125 258.558594 179.316406 259.039062 179.289062 259.515625 C 179.207031 261.414062 179.207031 263.253906 179.335938 265.015625 C 179.351562 265.238281 179.363281 265.457031 179.375 265.675781 C 179.390625 265.894531 179.417969 266.109375 179.4375 266.328125 C 179.480469 266.757812 179.523438 267.183594 179.566406 267.605469 C 179.625 268.023438 179.683594 268.4375 179.738281 268.847656 C 179.769531 269.054688 179.796875 269.253906 179.824219 269.457031 C 179.855469 269.660156 179.898438 269.855469 179.933594 270.054688 C 180.003906 270.453125 180.074219 270.847656 180.144531 271.234375 C 180.214844 271.621094 180.3125 271.996094 180.390625 272.371094 C 180.476562 272.742188 180.550781 273.113281 180.640625 273.476562 C 180.734375 273.832031 180.832031 274.1875 180.921875 274.535156 C 181.671875 277.320312 182.566406 279.683594 183.363281 281.601562 C 183.777344 282.554688 184.136719 283.414062 184.5 284.132812 C 184.847656 284.863281 185.140625 285.488281 185.40625 285.976562 C 185.921875 286.964844 186.195312 287.492188 186.195312 287.492188 C 186.195312 287.492188 185.898438 286.980469 185.339844 286.011719 C 185.054688 285.53125 184.738281 284.917969 184.359375 284.203125 C 183.96875 283.496094 183.570312 282.652344 183.113281 281.714844 C 182.234375 279.824219 181.234375 277.484375 180.359375 274.699219 C 180.25 274.351562 180.140625 273.996094 180.03125 273.636719 C 179.921875 273.277344 179.832031 272.90625 179.730469 272.53125 C 179.632812 272.15625 179.519531 271.777344 179.433594 271.390625 C 179.34375 271 179.257812 270.605469 179.167969 270.207031 C 179.121094 270.003906 179.074219 269.804688 179.03125 269.601562 C 178.996094 269.398438 178.957031 269.191406 178.917969 268.984375 C 178.84375 268.570312 178.769531 268.148438 178.691406 267.726562 C 178.628906 267.300781 178.570312 266.871094 178.503906 266.429688 C 178.476562 266.214844 178.441406 265.996094 178.414062 265.773438 C 178.394531 265.550781 178.371094 265.328125 178.34375 265.101562 C 178.140625 263.3125 178.058594 261.429688 178.0625 259.484375 C 178.070312 258.996094 178.0625 258.503906 178.085938 258.011719 C 178.105469 257.519531 178.128906 257.015625 178.148438 256.515625 C 178.222656 255.511719 178.289062 254.496094 178.410156 253.464844 C 178.851562 249.347656 179.75 245.066406 180.921875 240.726562 C 182.097656 236.375 183.546875 231.972656 185.082031 227.527344 C 185.277344 226.976562 185.46875 226.417969 185.664062 225.859375 C 185.769531 225.558594 185.875 225.253906 185.980469 224.949219 C 185.570312 223.882812 185.195312 222.800781 184.84375 221.703125 C 184.105469 219.386719 183.515625 216.992188 183.148438 214.546875 C 182.773438 212.101562 182.621094 209.601562 182.734375 207.109375 C 182.84375 204.625 183.222656 202.144531 183.851562 199.75 L 184.089844 198.855469 L 184.152344 198.632812 L 184.222656 198.40625 L 184.371094 197.957031 C 184.472656 197.65625 184.570312 197.359375 184.671875 197.058594 L 184.820312 196.609375 L 184.980469 196.203125 C 185.070312 195.976562 185.15625 195.75 185.246094 195.527344 C 185.105469 195.25 184.964844 194.972656 184.828125 194.695312 C 183.800781 192.734375 182.65625 190.835938 181.488281 188.972656 C 180.316406 187.105469 179.117188 185.269531 177.957031 183.429688 C 176.796875 181.589844 175.683594 179.742188 174.675781 177.867188 C 174.429688 177.394531 174.175781 176.929688 173.941406 176.457031 C 173.710938 175.980469 173.480469 175.507812 173.253906 175.035156 C 173.027344 174.566406 172.832031 174.078125 172.625 173.601562 C 172.523438 173.363281 172.421875 173.125 172.320312 172.886719 C 172.226562 172.636719 172.132812 172.386719 172.039062 172.136719 C 171.945312 171.886719 171.855469 171.640625 171.761719 171.390625 L 171.625 171.019531 C 171.578125 170.890625 171.550781 170.789062 171.511719 170.671875 C 171.371094 170.222656 171.230469 169.773438 171.089844 169.332031 L 171.039062 169.164062 L 171.027344 169.121094 C 171.011719 169.078125 171.039062 169.167969 170.992188 169.011719 L 170.96875 168.917969 L 170.871094 168.550781 C 170.804688 168.308594 170.742188 168.0625 170.6875 167.820312 C 170.570312 167.335938 170.476562 166.851562 170.378906 166.371094 C 169.671875 162.519531 169.730469 158.867188 170.316406 155.667969 C 170.332031 155.597656 170.34375 155.527344 170.359375 155.457031 C 172.148438 156.195312 173.996094 156.773438 175.929688 157.03125 C 175.398438 159.472656 175.234375 162.382812 175.675781 165.488281 C 175.738281 165.886719 175.796875 166.292969 175.878906 166.695312 C 175.914062 166.898438 175.957031 167.097656 176.003906 167.300781 L 176.070312 167.605469 L 176.089844 167.683594 C 176.050781 167.550781 176.085938 167.671875 176.078125 167.652344 L 176.089844 167.695312 L 176.136719 167.859375 C 176.257812 168.3125 176.378906 168.765625 176.5 169.222656 C 176.53125 169.332031 176.5625 169.457031 176.59375 169.554688 L 176.695312 169.855469 C 176.761719 170.058594 176.828125 170.261719 176.894531 170.464844 C 176.960938 170.667969 177.027344 170.875 177.09375 171.078125 C 177.175781 171.292969 177.253906 171.507812 177.335938 171.722656 C 177.507812 172.148438 177.65625 172.585938 177.84375 173.019531 C 178.03125 173.453125 178.21875 173.886719 178.40625 174.328125 C 178.605469 174.765625 178.820312 175.203125 179.027344 175.644531 C 179.886719 177.410156 180.863281 179.207031 181.917969 181.046875 C 182.972656 182.890625 184.097656 184.777344 185.21875 186.734375 C 185.964844 188.046875 186.710938 189.394531 187.425781 190.789062 C 188.140625 189.394531 188.882812 188.046875 189.632812 186.734375 C 190.753906 184.777344 191.875 182.890625 192.933594 181.046875 C 193.988281 179.207031 194.964844 177.410156 195.824219 175.644531 C 196.03125 175.203125 196.246094 174.765625 196.445312 174.328125 C 196.632812 173.886719 196.820312 173.453125 197.007812 173.019531 C 197.195312 172.585938 197.34375 172.148438 197.515625 171.722656 C 197.59375 171.507812 197.675781 171.292969 197.757812 171.078125 C 197.824219 170.875 197.890625 170.667969 197.953125 170.464844 C 198.023438 170.261719 198.089844 170.058594 198.15625 169.855469 L 198.253906 169.554688 C 198.289062 169.457031 198.320312 169.332031 198.351562 169.222656 C 198.472656 168.765625 198.59375 168.3125 198.714844 167.859375 L 198.757812 167.695312 L 198.773438 167.652344 C 198.765625 167.671875 198.800781 167.550781 198.761719 167.683594 L 198.777344 167.605469 L 198.84375 167.300781 C 198.894531 167.097656 198.933594 166.898438 198.96875 166.695312 C 199.054688 166.292969 199.113281 165.886719 199.179688 165.488281 C 199.628906 162.289062 199.441406 159.296875 198.871094 156.8125 C 198.3125 154.320312 197.371094 152.347656 196.414062 150.933594 C 196.269531 150.722656 196.125 150.527344 195.984375 150.335938 C 197.621094 149.679688 199.21875 149.25 200.800781 149.25 C 201.390625 149.25 201.957031 149.308594 202.515625 149.429688 C 203.382812 151.207031 204.105469 153.3125 204.53125 155.667969 C 205.121094 158.867188 205.179688 162.519531 204.472656 166.371094 C 204.375 166.851562 204.28125 167.335938 204.160156 167.820312 C 204.105469 168.0625 204.046875 168.308594 203.980469 168.550781 L 203.882812 168.917969 L 203.859375 169.011719 C 203.8125 169.167969 203.839844 169.078125 203.824219 169.121094 L 203.8125 169.164062 L 203.757812 169.332031 C 203.621094 169.773438 203.480469 170.222656 203.335938 170.671875 C 203.300781 170.789062 203.273438 170.890625 203.226562 171.019531 L 203.089844 171.390625 C 202.996094 171.640625 202.902344 171.886719 202.8125 172.136719 C 202.71875 172.386719 202.625 172.636719 202.53125 172.886719 C 202.429688 173.125 202.328125 173.363281 202.226562 173.601562 C 202.015625 174.078125 201.824219 174.566406 201.597656 175.035156 C 201.371094 175.507812 201.140625 175.980469 200.910156 176.457031 C 200.675781 176.929688 200.421875 177.394531 200.171875 177.867188 C 199.167969 179.742188 198.054688 181.589844 196.894531 183.429688 C 195.734375 185.269531 194.535156 187.105469 193.363281 188.972656 C 192.191406 190.835938 191.050781 192.734375 190.023438 194.695312 C 189.886719 194.972656 189.746094 195.25 189.605469 195.527344 C 189.695312 195.75 189.78125 195.976562 189.871094 196.203125 Z M 176.347656 246.296875 C 175.8125 248.140625 175.1875 249.902344 174.523438 251.578125 C 174.351562 251.996094 174.171875 252.402344 174 252.808594 C 173.910156 253.015625 173.824219 253.214844 173.738281 253.414062 C 173.648438 253.617188 173.550781 253.8125 173.460938 254.007812 C 173.273438 254.402344 173.089844 254.792969 172.90625 255.175781 C 172.714844 255.554688 172.519531 255.929688 172.328125 256.296875 C 171.957031 257.046875 171.53125 257.746094 171.144531 258.441406 C 170.953125 258.792969 170.730469 259.117188 170.53125 259.453125 C 170.324219 259.78125 170.128906 260.109375 169.921875 260.429688 C 169.710938 260.746094 169.5 261.054688 169.296875 261.363281 C 169.089844 261.667969 168.890625 261.972656 168.671875 262.257812 C 168.460938 262.550781 168.253906 262.835938 168.046875 263.117188 C 167.945312 263.257812 167.84375 263.394531 167.742188 263.535156 C 167.636719 263.671875 167.53125 263.804688 167.425781 263.933594 C 165.765625 266.066406 164.164062 267.792969 162.769531 269.128906 C 162.425781 269.46875 162.078125 269.765625 161.765625 270.058594 C 161.445312 270.347656 161.152344 270.625 160.859375 270.863281 C 160.574219 271.101562 160.308594 271.328125 160.066406 271.53125 C 159.824219 271.734375 159.601562 271.917969 159.394531 272.074219 C 158.578125 272.707031 158.140625 273.039062 158.140625 273.039062 C 158.140625 273.039062 158.558594 272.683594 159.34375 272.015625 C 159.542969 271.851562 159.757812 271.652344 159.988281 271.4375 C 160.21875 271.222656 160.472656 270.988281 160.746094 270.734375 C 161.023438 270.484375 161.300781 270.195312 161.601562 269.890625 C 161.902344 269.585938 162.230469 269.273438 162.554688 268.917969 C 163.875 267.523438 165.375 265.734375 166.910156 263.554688 C 167.003906 263.417969 167.101562 263.285156 167.203125 263.144531 C 167.292969 263.003906 167.386719 262.863281 167.480469 262.71875 C 167.671875 262.433594 167.863281 262.136719 168.058594 261.84375 C 168.253906 261.550781 168.433594 261.242188 168.625 260.929688 C 168.8125 260.617188 169.003906 260.300781 169.195312 259.984375 C 169.382812 259.660156 169.558594 259.328125 169.746094 258.992188 C 169.925781 258.65625 170.125 258.324219 170.296875 257.972656 C 170.644531 257.273438 171.023438 256.566406 171.351562 255.816406 C 171.519531 255.445312 171.699219 255.074219 171.867188 254.691406 C 172.023438 254.304688 172.1875 253.917969 172.347656 253.523438 C 172.429688 253.328125 172.515625 253.136719 172.589844 252.933594 C 172.664062 252.730469 172.742188 252.53125 172.816406 252.332031 C 172.964844 251.925781 173.121094 251.515625 173.265625 251.105469 C 173.835938 249.441406 174.355469 247.703125 174.789062 245.886719 C 175.203125 244.070312 175.558594 242.191406 175.792969 240.257812 C 176.019531 238.316406 176.152344 236.328125 176.167969 234.3125 C 176.175781 232.292969 176.050781 230.246094 175.800781 228.1875 C 175.730469 227.675781 175.679688 227.160156 175.589844 226.648438 C 175.503906 226.136719 175.414062 225.625 175.328125 225.109375 C 175.21875 224.601562 175.109375 224.085938 175 223.574219 L 174.917969 223.191406 L 174.820312 222.808594 L 174.621094 222.046875 C 174.09375 220.054688 173.40625 218.007812 172.578125 216.050781 C 172.394531 215.554688 172.152344 215.078125 171.9375 214.585938 L 171.609375 213.859375 C 171.496094 213.613281 171.386719 213.371094 171.261719 213.132812 C 170.78125 212.175781 170.3125 211.210938 169.785156 210.269531 C 167.738281 206.484375 165.347656 202.847656 162.957031 199.246094 C 160.566406 195.644531 158.167969 192.0625 156.027344 188.421875 C 155.757812 187.964844 155.5 187.488281 155.234375 187.027344 C 155.105469 186.796875 154.972656 186.5625 154.84375 186.332031 L 154.648438 185.984375 L 154.472656 185.648438 C 154.234375 185.199219 154 184.753906 153.765625 184.308594 L 153.589844 183.976562 L 153.546875 183.894531 L 153.484375 183.773438 L 153.398438 183.597656 C 153.285156 183.363281 153.167969 183.125 153.054688 182.890625 C 152.144531 181.003906 151.382812 179.101562 150.742188 177.214844 C 149.460938 173.429688 148.6875 169.679688 148.398438 166.132812 C 148.109375 162.585938 148.328125 159.246094 148.929688 156.308594 C 149.222656 154.835938 149.636719 153.476562 150.089844 152.234375 C 150.207031 151.925781 150.324219 151.621094 150.4375 151.324219 C 150.566406 151.035156 150.691406 150.75 150.816406 150.46875 C 150.878906 150.332031 150.941406 150.195312 151 150.054688 C 151.070312 149.921875 151.136719 149.792969 151.203125 149.660156 C 151.28125 149.507812 151.355469 149.359375 151.433594 149.207031 C 152.164062 149.089844 152.886719 149.027344 153.597656 149.027344 C 153.980469 149.027344 154.363281 149.046875 154.742188 149.082031 C 156.15625 149.203125 157.542969 149.558594 158.921875 150.054688 C 158.820312 150.175781 158.71875 150.300781 158.613281 150.429688 C 158.414062 150.671875 158.226562 150.949219 158.007812 151.238281 C 157.800781 151.53125 157.597656 151.859375 157.375 152.199219 C 156.535156 153.59375 155.675781 155.425781 155.085938 157.71875 C 154.496094 160.007812 154.164062 162.75 154.261719 165.796875 C 154.355469 168.839844 154.867188 172.179688 155.84375 175.617188 C 156.332031 177.335938 156.929688 179.082031 157.664062 180.8125 C 157.757812 181.027344 157.847656 181.246094 157.941406 181.460938 L 158.011719 181.625 C 158.023438 181.648438 157.992188 181.582031 158.015625 181.632812 L 158.03125 181.671875 L 158.074219 181.757812 L 158.230469 182.097656 C 158.441406 182.554688 158.65625 183.007812 158.871094 183.46875 L 159.03125 183.816406 L 159.195312 184.144531 C 159.304688 184.359375 159.414062 184.578125 159.523438 184.796875 C 159.746094 185.234375 159.957031 185.671875 160.191406 186.117188 C 162.058594 189.691406 164.226562 193.316406 166.453125 197.046875 C 168.671875 200.78125 170.941406 204.625 172.882812 208.6875 C 173.382812 209.695312 173.828125 210.734375 174.285156 211.761719 C 174.402344 212.019531 174.503906 212.28125 174.605469 212.542969 L 174.917969 213.332031 C 175.121094 213.859375 175.34375 214.375 175.519531 214.914062 C 176.296875 217.042969 176.902344 219.175781 177.375 221.394531 L 177.542969 222.214844 L 177.628906 222.625 L 177.695312 223.035156 C 177.785156 223.582031 177.871094 224.128906 177.960938 224.671875 C 178.027344 225.222656 178.09375 225.769531 178.160156 226.3125 C 178.222656 226.859375 178.253906 227.402344 178.300781 227.945312 C 178.457031 230.121094 178.480469 232.269531 178.371094 234.375 C 178.25 236.480469 178.007812 238.539062 177.675781 240.535156 C 177.332031 242.527344 176.867188 244.449219 176.347656 246.296875 Z M 123.351562 233.648438 C 121.125 237.105469 116.519531 238.109375 113.058594 235.882812 C 109.601562 233.660156 108.597656 229.054688 110.824219 225.59375 C 113.046875 222.132812 117.65625 221.132812 121.113281 223.355469 C 124.574219 225.582031 125.574219 230.1875 123.351562 233.648438 Z M 114.226562 256.652344 C 112.402344 259.492188 108.625 260.3125 105.789062 258.488281 C 102.949219 256.664062 102.128906 252.886719 103.953125 250.046875 C 105.777344 247.210938 109.554688 246.390625 112.394531 248.214844 C 115.230469 250.039062 116.050781 253.816406 114.226562 256.652344 Z M 102.804688 203 C 104.851562 199.816406 109.089844 198.894531 112.269531 200.941406 C 115.453125 202.984375 116.375 207.226562 114.328125 210.40625 C 112.28125 213.589844 108.042969 214.511719 104.863281 212.464844 C 101.679688 210.417969 100.761719 206.183594 102.804688 203 Z M 99.613281 183.265625 C 98.128906 182.3125 97.699219 180.339844 98.652344 178.851562 C 99.605469 177.371094 101.582031 176.945312 103.0625 177.894531 C 104.546875 178.851562 104.976562 180.824219 104.023438 182.308594 C 103.070312 183.789062 101.09375 184.21875 99.613281 183.265625 Z M 100.757812 240.730469 C 99.664062 242.433594 97.402344 242.925781 95.699219 241.828125 C 94.003906 240.738281 93.507812 238.472656 94.601562 236.777344 C 95.695312 235.078125 97.957031 234.585938 99.65625 235.679688 C 101.359375 236.769531 101.847656 239.03125 100.757812 240.730469 Z M 111.234375 175.601562 C 112.722656 173.292969 115.796875 172.625 118.105469 174.109375 C 120.414062 175.59375 121.082031 178.667969 119.597656 180.980469 C 118.113281 183.289062 115.039062 183.953125 112.730469 182.472656 C 110.421875 180.984375 109.75 177.910156 111.234375 175.601562 Z M 191.457031 39.59375 C 113.5 37.503906 48.609375 99.007812 46.519531 176.964844 C 44.429688 254.925781 105.933594 319.816406 183.890625 321.90625 C 261.851562 323.992188 326.742188 262.492188 328.832031 184.535156 C 330.917969 106.574219 269.417969 41.683594 191.457031 39.59375 " fill-opacity="1" fill-rule="nonzero"/><path fill="#77536f" d="M 144.40625 111.21875 C 143.390625 110.980469 142.375 111.605469 142.132812 112.621094 C 141.976562 113.261719 141.835938 113.914062 141.707031 114.5625 C 141.503906 115.582031 142.167969 116.578125 143.191406 116.785156 C 143.316406 116.804688 143.4375 116.820312 143.5625 116.820312 C 144.441406 116.820312 145.234375 116.195312 145.410156 115.300781 C 145.53125 114.699219 145.664062 114.09375 145.804688 113.496094 C 146.046875 112.480469 145.421875 111.460938 144.40625 111.21875 " fill-opacity="1" fill-rule="nonzero"/><path fill="#77536f" d="M 187.425781 200.976562 C 186.808594 203.027344 186.390625 205.160156 186.203125 207.335938 C 186.007812 209.574219 186.050781 211.855469 186.300781 214.128906 C 186.519531 216.164062 186.910156 218.195312 187.425781 220.195312 C 187.9375 218.195312 188.332031 216.164062 188.550781 214.128906 C 188.796875 211.855469 188.84375 209.574219 188.644531 207.335938 C 188.460938 205.160156 188.046875 203.027344 187.425781 200.976562 " fill-opacity="1" fill-rule="nonzero"/></svg>