<svg xmlns="http://www.w3.org/2000/svg" xmlns:xlink="http://www.w3.org/1999/xlink" width="500" zoomAndPan="magnify" viewBox="0 0 375 374.999991" height="500" preserveAspectRatio="xMidYMid meet" version="1.0"><defs><clipPath id="890a44f8ad"><path d="M 229 220 L 367.570312 220 L 367.570312 367.570312 L 229 367.570312 Z M 229 220 " clip-rule="nonzero"/></clipPath></defs><path fill="#545454" d="M 124.292969 31.894531 C 100.617188 31.894531 76.949219 40.902344 58.929688 58.929688 C 22.886719 94.972656 22.886719 153.617188 58.929688 189.664062 C 94.972656 225.710938 153.617188 225.710938 189.664062 189.664062 C 225.707031 153.617188 225.707031 94.972656 189.664062 58.929688 C 171.640625 40.902344 147.96875 31.894531 124.292969 31.894531 Z M 124.292969 230.675781 C 97.042969 230.675781 69.785156 220.300781 49.039062 199.554688 C 7.535156 158.054688 7.535156 90.535156 49.039062 49.039062 C 90.53125 7.542969 158.054688 7.542969 199.554688 49.039062 C 241.050781 90.535156 241.050781 158.054688 199.554688 199.554688 C 178.800781 220.300781 151.546875 230.675781 124.292969 230.675781 " fill-opacity="1" fill-rule="nonzero"/><path fill="#545454" d="M 167.929688 87.648438 C 166.140625 87.648438 164.347656 86.96875 162.980469 85.605469 C 141.65625 64.277344 106.9375 64.273438 85.597656 85.605469 C 82.871094 88.335938 78.445312 88.335938 75.714844 85.605469 C 72.980469 82.871094 72.980469 78.445312 75.714844 75.714844 C 102.496094 48.929688 146.085938 48.929688 172.871094 75.714844 C 175.605469 78.445312 175.605469 82.871094 172.871094 85.605469 C 171.507812 86.96875 169.71875 87.648438 167.929688 87.648438 " fill-opacity="1" fill-rule="nonzero"/><path fill="#545454" d="M 236.347656 243.347656 C 234.558594 243.347656 232.773438 242.660156 231.40625 241.296875 L 191.410156 201.300781 C 188.679688 198.570312 188.679688 194.144531 191.410156 191.410156 C 194.144531 188.679688 198.570312 188.679688 201.300781 191.410156 L 241.296875 231.40625 C 244.027344 234.136719 244.027344 238.5625 241.296875 241.296875 C 239.929688 242.660156 238.136719 243.347656 236.347656 243.347656 " fill-opacity="1" fill-rule="nonzero"/><g clip-path="url(#890a44f8ad)"><path fill="#545454" d="M 329.523438 367.527344 C 319.371094 367.527344 309.824219 363.574219 302.644531 356.398438 L 231.40625 285.164062 C 228.671875 282.425781 228.671875 278.003906 231.40625 275.273438 C 234.136719 272.539062 238.5625 272.539062 241.296875 275.273438 L 312.535156 346.511719 C 321.613281 355.59375 337.4375 355.578125 346.511719 346.511719 C 351.050781 341.976562 353.550781 335.945312 353.550781 329.523438 C 353.550781 323.101562 351.050781 317.074219 346.511719 312.539062 L 275.273438 241.296875 C 265.910156 231.945312 250.667969 231.929688 241.296875 241.296875 C 238.5625 244.027344 234.132812 244.027344 231.402344 241.296875 C 228.671875 238.5625 228.671875 234.136719 231.40625 231.40625 C 246.234375 216.585938 270.347656 216.589844 285.164062 231.40625 L 356.398438 302.648438 C 363.582031 309.832031 367.535156 319.371094 367.535156 329.523438 C 367.535156 339.679688 363.582031 349.21875 356.398438 356.398438 C 349.21875 363.574219 339.675781 367.527344 329.523438 367.527344 " fill-opacity="1" fill-rule="nonzero"/></g></svg>