<svg xmlns="http://www.w3.org/2000/svg" xmlns:xlink="http://www.w3.org/1999/xlink" width="500" zoomAndPan="magnify" viewBox="0 0 375 374.999991" height="500" preserveAspectRatio="xMidYMid meet" version="1.0"><defs><clipPath id="9abe1a1f8f"><path d="M 17.890625 20 L 357 20 L 357 373 L 17.890625 373 Z M 17.890625 20 " clip-rule="nonzero"/></clipPath><clipPath id="eb57b34bb0"><path d="M 78 4 L 368.890625 4 L 368.890625 306 L 78 306 Z M 78 4 " clip-rule="nonzero"/></clipPath></defs><g clip-path="url(#9abe1a1f8f)"><path fill="#000000" d="M 348.84375 123.160156 C 348.324219 123.160156 347.808594 123.210938 347.300781 123.3125 C 346.789062 123.414062 346.296875 123.5625 345.816406 123.761719 C 345.335938 123.960938 344.878906 124.203125 344.449219 124.492188 C 344.015625 124.78125 343.617188 125.109375 343.25 125.476562 C 342.882812 125.84375 342.554688 126.242188 342.269531 126.675781 C 341.980469 127.105469 341.734375 127.5625 341.539062 128.042969 C 341.339844 128.523438 341.1875 129.015625 341.089844 129.527344 C 340.988281 130.035156 340.9375 130.550781 340.9375 131.070312 L 340.9375 335.675781 C 340.9375 336.355469 340.902344 337.03125 340.835938 337.707031 C 340.769531 338.382812 340.667969 339.054688 340.535156 339.71875 C 340.402344 340.386719 340.238281 341.042969 340.039062 341.691406 C 339.84375 342.339844 339.613281 342.980469 339.355469 343.605469 C 339.09375 344.234375 338.804688 344.847656 338.484375 345.445312 C 338.164062 346.042969 337.816406 346.625 337.441406 347.1875 C 337.0625 347.753906 336.660156 348.296875 336.230469 348.824219 C 335.796875 349.347656 335.34375 349.851562 334.863281 350.328125 C 334.382812 350.808594 333.882812 351.265625 333.355469 351.695312 C 332.832031 352.125 332.289062 352.53125 331.722656 352.90625 C 331.160156 353.285156 330.578125 353.632812 329.980469 353.953125 C 329.382812 354.273438 328.769531 354.566406 328.144531 354.824219 C 327.515625 355.085938 326.878906 355.3125 326.230469 355.511719 C 325.582031 355.710938 324.921875 355.875 324.257812 356.007812 C 323.59375 356.140625 322.921875 356.242188 322.246094 356.308594 C 321.570312 356.375 320.894531 356.410156 320.214844 356.410156 L 54.34375 356.410156 C 53.664062 356.410156 52.988281 356.375 52.3125 356.308594 C 51.636719 356.242188 50.964844 356.140625 50.300781 356.007812 C 49.632812 355.875 48.976562 355.710938 48.328125 355.511719 C 47.679688 355.316406 47.039062 355.085938 46.414062 354.828125 C 45.785156 354.566406 45.171875 354.277344 44.574219 353.957031 C 43.976562 353.636719 43.394531 353.289062 42.832031 352.910156 C 42.265625 352.53125 41.722656 352.128906 41.199219 351.699219 C 40.671875 351.265625 40.171875 350.8125 39.691406 350.332031 C 39.210938 349.851562 38.753906 349.351562 38.324219 348.824219 C 37.894531 348.300781 37.492188 347.753906 37.113281 347.191406 C 36.734375 346.625 36.386719 346.046875 36.066406 345.445312 C 35.746094 344.847656 35.457031 344.234375 35.195312 343.609375 C 34.9375 342.980469 34.707031 342.34375 34.511719 341.691406 C 34.3125 341.042969 34.148438 340.386719 34.015625 339.71875 C 33.882812 339.054688 33.78125 338.382812 33.714844 337.707031 C 33.648438 337.03125 33.613281 336.355469 33.613281 335.675781 L 33.613281 56.628906 C 33.613281 55.949219 33.648438 55.269531 33.714844 54.597656 C 33.78125 53.921875 33.882812 53.25 34.015625 52.582031 C 34.148438 51.917969 34.3125 51.261719 34.511719 50.609375 C 34.707031 49.960938 34.9375 49.324219 35.195312 48.695312 C 35.457031 48.070312 35.746094 47.457031 36.066406 46.855469 C 36.386719 46.257812 36.734375 45.675781 37.113281 45.113281 C 37.492188 44.546875 37.894531 44.003906 38.324219 43.480469 C 38.753906 42.953125 39.210938 42.453125 39.691406 41.972656 C 40.171875 41.492188 40.671875 41.035156 41.199219 40.605469 C 41.722656 40.175781 42.265625 39.769531 42.832031 39.394531 C 43.394531 39.015625 43.976562 38.667969 44.574219 38.347656 C 45.171875 38.027344 45.785156 37.738281 46.414062 37.476562 C 47.039062 37.214844 47.679688 36.988281 48.328125 36.789062 C 48.976562 36.59375 49.632812 36.429688 50.300781 36.296875 C 50.964844 36.160156 51.636719 36.0625 52.3125 35.996094 C 52.988281 35.929688 53.664062 35.894531 54.34375 35.894531 L 236.183594 35.894531 C 236.703125 35.894531 237.214844 35.84375 237.726562 35.742188 C 238.234375 35.640625 238.730469 35.488281 239.207031 35.292969 C 239.6875 35.09375 240.144531 34.847656 240.574219 34.5625 C 241.007812 34.273438 241.40625 33.945312 241.773438 33.578125 C 242.140625 33.210938 242.46875 32.8125 242.757812 32.378906 C 243.042969 31.949219 243.289062 31.492188 243.488281 31.011719 C 243.683594 30.53125 243.835938 30.039062 243.9375 29.527344 C 244.039062 29.019531 244.089844 28.503906 244.089844 27.984375 C 244.089844 27.464844 244.039062 26.953125 243.9375 26.441406 C 243.835938 25.933594 243.683594 25.441406 243.488281 24.960938 C 243.289062 24.480469 243.042969 24.023438 242.757812 23.59375 C 242.46875 23.160156 242.140625 22.761719 241.773438 22.394531 C 241.40625 22.027344 241.007812 21.699219 240.574219 21.410156 C 240.144531 21.121094 239.6875 20.878906 239.207031 20.679688 C 238.730469 20.480469 238.234375 20.332031 237.726562 20.230469 C 237.214844 20.128906 236.703125 20.078125 236.183594 20.078125 L 54.34375 20.078125 C 53.144531 20.078125 51.953125 20.140625 50.761719 20.257812 C 49.570312 20.375 48.390625 20.554688 47.21875 20.789062 C 46.042969 21.023438 44.886719 21.3125 43.742188 21.660156 C 42.59375 22.007812 41.472656 22.414062 40.367188 22.871094 C 39.261719 23.328125 38.179688 23.839844 37.125 24.40625 C 36.070312 24.96875 35.046875 25.585938 34.050781 26.25 C 33.058594 26.914062 32.097656 27.628906 31.171875 28.386719 C 30.25 29.144531 29.363281 29.949219 28.515625 30.792969 C 27.671875 31.640625 26.867188 32.527344 26.109375 33.453125 C 25.351562 34.375 24.636719 35.335938 23.972656 36.332031 C 23.308594 37.324219 22.695312 38.351562 22.128906 39.40625 C 21.566406 40.460938 21.054688 41.542969 20.59375 42.648438 C 20.136719 43.753906 19.734375 44.878906 19.386719 46.023438 C 19.039062 47.167969 18.746094 48.328125 18.511719 49.5 C 18.277344 50.671875 18.101562 51.855469 17.984375 53.046875 C 17.863281 54.238281 17.804688 55.429688 17.804688 56.628906 L 17.804688 335.675781 C 17.804688 336.871094 17.863281 338.066406 17.984375 339.257812 C 18.101562 340.449219 18.277344 341.628906 18.511719 342.804688 C 18.746094 343.976562 19.039062 345.136719 19.386719 346.28125 C 19.734375 347.425781 20.136719 348.550781 20.59375 349.65625 C 21.054688 350.761719 21.566406 351.84375 22.128906 352.898438 C 22.695312 353.953125 23.308594 354.976562 23.972656 355.972656 C 24.636719 356.96875 25.351562 357.925781 26.109375 358.851562 C 26.867188 359.777344 27.671875 360.664062 28.515625 361.507812 C 29.363281 362.355469 30.25 363.15625 31.171875 363.917969 C 32.097656 364.675781 33.058594 365.390625 34.050781 366.054688 C 35.046875 366.71875 36.070312 367.332031 37.125 367.898438 C 38.179688 368.460938 39.261719 368.972656 40.367188 369.433594 C 41.472656 369.890625 42.59375 370.292969 43.742188 370.644531 C 44.886719 370.992188 46.042969 371.28125 47.21875 371.515625 C 48.390625 371.75 49.570312 371.925781 50.761719 372.046875 C 51.953125 372.164062 53.144531 372.222656 54.34375 372.226562 L 320.214844 372.226562 C 321.414062 372.222656 322.605469 372.164062 323.796875 372.046875 C 324.988281 371.925781 326.167969 371.75 327.339844 371.515625 C 328.515625 371.28125 329.671875 370.988281 330.816406 370.640625 C 331.960938 370.292969 333.085938 369.890625 334.191406 369.429688 C 335.296875 368.972656 336.375 368.460938 337.429688 367.894531 C 338.484375 367.332031 339.507812 366.714844 340.503906 366.050781 C 341.5 365.386719 342.457031 364.675781 343.382812 363.914062 C 344.304688 363.15625 345.191406 362.351562 346.039062 361.507812 C 346.882812 360.660156 347.6875 359.773438 348.445312 358.851562 C 349.203125 357.925781 349.914062 356.964844 350.578125 355.96875 C 351.246094 354.976562 351.859375 353.949219 352.421875 352.894531 C 352.988281 351.839844 353.5 350.761719 353.957031 349.65625 C 354.414062 348.550781 354.820312 347.425781 355.167969 346.28125 C 355.515625 345.136719 355.804688 343.976562 356.039062 342.804688 C 356.273438 341.628906 356.449219 340.449219 356.570312 339.257812 C 356.6875 338.066406 356.746094 336.871094 356.746094 335.675781 L 356.746094 131.070312 C 356.75 130.550781 356.699219 130.035156 356.597656 129.527344 C 356.496094 129.015625 356.347656 128.523438 356.148438 128.042969 C 355.949219 127.5625 355.707031 127.105469 355.417969 126.675781 C 355.128906 126.242188 354.800781 125.84375 354.433594 125.476562 C 354.066406 125.109375 353.667969 124.78125 353.234375 124.492188 C 352.804688 124.203125 352.347656 123.960938 351.867188 123.761719 C 351.386719 123.5625 350.894531 123.414062 350.386719 123.3125 C 349.875 123.210938 349.363281 123.160156 348.84375 123.160156 Z M 348.84375 123.160156 " fill-opacity="1" fill-rule="nonzero"/></g><g clip-path="url(#eb57b34bb0)"><path fill="#000000" d="M 366.351562 59.671875 L 306.96875 6.378906 C 306.59375 6.042969 306.1875 5.742188 305.753906 5.484375 C 305.324219 5.222656 304.871094 5.007812 304.394531 4.832031 C 303.921875 4.660156 303.433594 4.535156 302.9375 4.453125 C 302.4375 4.375 301.9375 4.34375 301.429688 4.359375 C 300.925781 4.375 300.429688 4.4375 299.9375 4.550781 C 299.445312 4.664062 298.964844 4.820312 298.503906 5.023438 C 298.042969 5.226562 297.605469 5.472656 297.1875 5.761719 C 296.773438 6.046875 296.390625 6.371094 296.035156 6.734375 L 92.542969 214.648438 C 92.464844 214.726562 92.425781 214.832031 92.351562 214.914062 C 92.296875 214.976562 92.21875 215 92.164062 215.0625 C 92.027344 215.222656 91.992188 215.425781 91.871094 215.589844 C 91.464844 216.144531 91.136719 216.738281 90.890625 217.375 C 90.769531 217.6875 90.667969 218.007812 90.589844 218.335938 C 90.53125 218.574219 90.40625 218.789062 90.371094 219.03125 L 79.023438 296.78125 C 78.941406 297.339844 78.917969 297.90625 78.957031 298.472656 C 78.996094 299.039062 79.097656 299.59375 79.253906 300.136719 C 79.414062 300.683594 79.628906 301.203125 79.898438 301.703125 C 80.171875 302.203125 80.492188 302.664062 80.863281 303.09375 C 81.234375 303.523438 81.648438 303.910156 82.101562 304.25 C 82.554688 304.589844 83.039062 304.878906 83.554688 305.113281 C 84.070312 305.351562 84.605469 305.527344 85.160156 305.648438 C 85.714844 305.769531 86.277344 305.832031 86.84375 305.828125 C 87.6875 305.828125 88.511719 305.699219 89.316406 305.4375 L 163.542969 280.980469 C 163.671875 280.9375 163.753906 280.816406 163.882812 280.765625 C 164.59375 280.457031 165.246094 280.046875 165.835938 279.539062 C 166.160156 279.363281 166.472656 279.167969 166.769531 278.949219 L 366.769531 71.035156 C 367.136719 70.652344 367.460938 70.238281 367.746094 69.789062 C 368.027344 69.34375 368.265625 68.871094 368.453125 68.375 C 368.644531 67.878906 368.78125 67.367188 368.867188 66.84375 C 368.953125 66.320312 368.988281 65.792969 368.96875 65.265625 C 368.949219 64.734375 368.878906 64.210938 368.753906 63.695312 C 368.628906 63.179688 368.453125 62.683594 368.226562 62.199219 C 368.003906 61.71875 367.734375 61.265625 367.417969 60.839844 C 367.101562 60.414062 366.746094 60.023438 366.351562 59.667969 Z M 160.519531 262.636719 L 109.785156 219.636719 L 257.417969 68.796875 L 304.4375 113.023438 Z M 103.957031 235.421875 L 145.195312 270.371094 L 96.515625 286.410156 Z M 315.398438 101.628906 L 268.476562 57.5 L 302.042969 23.207031 L 349.699219 65.972656 Z M 315.398438 101.628906 " fill-opacity="1" fill-rule="nonzero"/></g></svg>