<svg xmlns="http://www.w3.org/2000/svg" xmlns:xlink="http://www.w3.org/1999/xlink" width="500" zoomAndPan="magnify" viewBox="0 0 375 374.999991" height="500" preserveAspectRatio="xMidYMid meet" version="1.0"><defs><clipPath id="42e9af3cc5"><path d="M 9 6.191406 L 368.441406 6.191406 L 368.441406 365 L 9 365 Z M 9 6.191406 " clip-rule="nonzero"/></clipPath></defs><path fill="#545454" d="M 201.695312 185.269531 C 201.695312 186.097656 201.613281 186.914062 201.453125 187.726562 C 201.292969 188.535156 201.054688 189.324219 200.738281 190.085938 C 200.421875 190.851562 200.03125 191.578125 199.574219 192.265625 C 199.113281 192.949219 198.59375 193.585938 198.007812 194.171875 C 197.425781 194.753906 196.789062 195.277344 196.101562 195.738281 C 195.414062 196.195312 194.6875 196.582031 193.925781 196.898438 C 193.160156 197.214844 192.375 197.453125 191.5625 197.617188 C 190.753906 197.777344 189.933594 197.859375 189.109375 197.859375 C 188.28125 197.859375 187.464844 197.777344 186.652344 197.617188 C 185.84375 197.453125 185.054688 197.214844 184.292969 196.898438 C 183.527344 196.582031 182.804688 196.195312 182.117188 195.738281 C 181.429688 195.277344 180.792969 194.753906 180.207031 194.171875 C 179.625 193.585938 179.101562 192.949219 178.644531 192.265625 C 178.183594 191.578125 177.796875 190.851562 177.480469 190.085938 C 177.164062 189.324219 176.925781 188.535156 176.761719 187.726562 C 176.601562 186.914062 176.523438 186.097656 176.523438 185.269531 C 176.523438 184.445312 176.601562 183.625 176.761719 182.816406 C 176.925781 182.003906 177.164062 181.21875 177.480469 180.453125 C 177.796875 179.691406 178.183594 178.964844 178.644531 178.277344 C 179.101562 177.589844 179.625 176.957031 180.207031 176.371094 C 180.792969 175.785156 181.429688 175.265625 182.117188 174.804688 C 182.804688 174.347656 183.527344 173.957031 184.292969 173.640625 C 185.054688 173.328125 185.84375 173.085938 186.652344 172.925781 C 187.464844 172.765625 188.28125 172.683594 189.109375 172.683594 C 189.933594 172.683594 190.753906 172.765625 191.5625 172.925781 C 192.375 173.085938 193.160156 173.328125 193.925781 173.640625 C 194.6875 173.957031 195.414062 174.347656 196.101562 174.804688 C 196.789062 175.265625 197.425781 175.785156 198.007812 176.371094 C 198.59375 176.957031 199.113281 177.589844 199.574219 178.277344 C 200.03125 178.964844 200.421875 179.691406 200.738281 180.453125 C 201.054688 181.21875 201.292969 182.003906 201.453125 182.816406 C 201.613281 183.625 201.695312 184.445312 201.695312 185.269531 Z M 201.695312 185.269531 " fill-opacity="1" fill-rule="nonzero"/><g clip-path="url(#42e9af3cc5)"><path fill="#545454" d="M 189.109375 364.605469 C 186.171875 364.605469 183.242188 364.535156 180.308594 364.390625 C 177.378906 364.246094 174.453125 364.03125 171.53125 363.742188 C 168.609375 363.453125 165.699219 363.09375 162.792969 362.664062 C 159.890625 362.234375 157 361.730469 154.121094 361.160156 C 151.242188 360.585938 148.378906 359.945312 145.535156 359.230469 C 142.6875 358.515625 139.859375 357.734375 137.050781 356.882812 C 134.242188 356.03125 131.457031 355.109375 128.691406 354.121094 C 125.929688 353.132812 123.191406 352.078125 120.480469 350.953125 C 117.769531 349.832031 115.085938 348.640625 112.433594 347.386719 C 109.78125 346.132812 107.160156 344.8125 104.570312 343.429688 C 101.984375 342.046875 99.429688 340.601562 96.914062 339.089844 C 94.394531 337.582031 91.917969 336.011719 89.476562 334.382812 C 87.035156 332.75 84.636719 331.0625 82.277344 329.3125 C 79.921875 327.566406 77.609375 325.761719 75.339844 323.898438 C 73.070312 322.035156 70.851562 320.121094 68.675781 318.148438 C 66.5 316.179688 64.375 314.15625 62.300781 312.078125 C 60.226562 310.003906 58.203125 307.878906 56.230469 305.703125 C 54.257812 303.53125 52.34375 301.308594 50.480469 299.039062 C 48.621094 296.769531 46.8125 294.457031 45.066406 292.101562 C 43.316406 289.742188 41.628906 287.34375 39.996094 284.902344 C 38.367188 282.464844 36.796875 279.984375 35.289062 277.46875 C 33.78125 274.949219 32.332031 272.398438 30.949219 269.808594 C 29.566406 267.21875 28.246094 264.597656 26.992188 261.945312 C 25.738281 259.292969 24.546875 256.609375 23.425781 253.898438 C 22.300781 251.1875 21.246094 248.449219 20.257812 245.6875 C 19.269531 242.921875 18.347656 240.136719 17.496094 237.328125 C 16.644531 234.519531 15.863281 231.691406 15.148438 228.84375 C 14.4375 226 13.792969 223.136719 13.21875 220.257812 C 12.648438 217.378906 12.144531 214.488281 11.714844 211.585938 C 11.285156 208.683594 10.925781 205.769531 10.636719 202.847656 C 10.351562 199.929688 10.132812 197.003906 9.992188 194.070312 C 9.847656 191.140625 9.773438 188.207031 9.773438 185.269531 C 9.773438 182.335938 9.847656 179.402344 9.992188 176.472656 C 10.132812 173.539062 10.351562 170.613281 10.636719 167.691406 C 10.925781 164.773438 11.285156 161.859375 11.714844 158.957031 C 12.144531 156.054688 12.648438 153.164062 13.21875 150.285156 C 13.792969 147.40625 14.4375 144.542969 15.148438 141.695312 C 15.863281 138.847656 16.644531 136.023438 17.496094 133.214844 C 18.347656 130.40625 19.269531 127.617188 20.257812 124.855469 C 21.246094 122.089844 22.300781 119.355469 23.425781 116.644531 C 24.546875 113.929688 25.738281 111.25 26.992188 108.597656 C 28.246094 105.941406 29.566406 103.320312 30.949219 100.734375 C 32.332031 98.144531 33.78125 95.59375 35.289062 93.074219 C 36.796875 90.558594 38.367188 88.078125 39.996094 85.636719 C 41.628906 83.199219 43.316406 80.800781 45.066406 78.441406 C 46.8125 76.085938 48.621094 73.769531 50.480469 71.503906 C 52.34375 69.234375 54.257812 67.011719 56.230469 64.835938 C 58.203125 62.664062 60.226562 60.539062 62.300781 58.460938 C 64.375 56.386719 66.5 54.363281 68.675781 52.394531 C 70.851562 50.421875 73.070312 48.503906 75.339844 46.644531 C 77.609375 44.78125 79.921875 42.976562 82.277344 41.226562 C 84.636719 39.480469 87.035156 37.789062 89.476562 36.160156 C 91.917969 34.53125 94.394531 32.960938 96.914062 31.449219 C 99.429688 29.941406 101.984375 28.496094 104.570312 27.113281 C 107.160156 25.730469 109.78125 24.410156 112.433594 23.15625 C 115.085938 21.898438 117.769531 20.710938 120.480469 19.585938 C 123.191406 18.464844 125.929688 17.410156 128.691406 16.421875 C 131.457031 15.429688 134.242188 14.511719 137.050781 13.660156 C 139.859375 12.808594 142.6875 12.023438 145.535156 11.3125 C 148.378906 10.597656 151.242188 9.957031 154.121094 9.382812 C 157 8.808594 159.890625 8.308594 162.792969 7.878906 C 165.699219 7.445312 168.609375 7.089844 171.53125 6.800781 C 174.453125 6.511719 177.378906 6.296875 180.308594 6.152344 C 183.242188 6.007812 186.171875 5.9375 189.109375 5.9375 C 192.042969 5.9375 194.976562 6.007812 197.90625 6.152344 C 200.839844 6.296875 203.765625 6.511719 206.6875 6.800781 C 209.605469 7.089844 212.519531 7.445312 215.421875 7.878906 C 218.324219 8.308594 221.214844 8.808594 224.09375 9.382812 C 226.972656 9.957031 229.835938 10.597656 232.683594 11.3125 C 235.53125 12.023438 238.359375 12.808594 241.167969 13.660156 C 243.976562 14.511719 246.761719 15.429688 249.523438 16.421875 C 252.289062 17.410156 255.023438 18.464844 257.738281 19.585938 C 260.449219 20.710938 263.128906 21.898438 265.785156 23.15625 C 268.4375 24.410156 271.058594 25.730469 273.644531 27.113281 C 276.234375 28.496094 278.789062 29.941406 281.304688 31.449219 C 283.820312 32.960938 286.300781 34.53125 288.742188 36.160156 C 291.179688 37.789062 293.582031 39.480469 295.9375 41.226562 C 298.296875 42.976562 300.609375 44.78125 302.875 46.644531 C 305.144531 48.503906 307.367188 50.421875 309.542969 52.394531 C 311.714844 54.363281 313.839844 56.386719 315.917969 58.460938 C 317.992188 60.539062 320.015625 62.664062 321.984375 64.835938 C 323.957031 67.011719 325.875 69.234375 327.734375 71.503906 C 329.597656 73.769531 331.402344 76.085938 333.152344 78.441406 C 334.898438 80.800781 336.589844 83.199219 338.21875 85.636719 C 339.851562 88.078125 341.417969 90.558594 342.929688 93.074219 C 344.4375 95.59375 345.882812 98.144531 347.265625 100.734375 C 348.652344 103.320312 349.96875 105.941406 351.222656 108.597656 C 352.480469 111.25 353.667969 113.929688 354.792969 116.644531 C 355.914062 119.355469 356.96875 122.09375 357.960938 124.855469 C 358.949219 127.617188 359.867188 130.40625 360.71875 133.214844 C 361.574219 136.023438 362.355469 138.847656 363.066406 141.695312 C 363.78125 144.542969 364.425781 147.40625 364.996094 150.285156 C 365.570312 153.164062 366.070312 156.054688 366.5 158.957031 C 366.933594 161.859375 367.292969 164.773438 367.578125 167.691406 C 367.867188 170.613281 368.082031 173.539062 368.226562 176.472656 C 368.371094 179.402344 368.441406 182.335938 368.441406 185.269531 C 368.4375 188.203125 368.363281 191.136719 368.21875 194.066406 C 368.070312 196.996094 367.851562 199.921875 367.5625 202.84375 C 367.269531 205.761719 366.910156 208.671875 366.476562 211.574219 C 366.042969 214.476562 365.539062 217.367188 364.964844 220.242188 C 364.386719 223.121094 363.742188 225.980469 363.027344 228.828125 C 362.3125 231.671875 361.527344 234.5 360.675781 237.304688 C 359.820312 240.113281 358.898438 242.898438 357.910156 245.660156 C 356.917969 248.421875 355.863281 251.15625 354.738281 253.867188 C 353.613281 256.578125 352.421875 259.257812 351.167969 261.910156 C 349.910156 264.5625 348.589844 267.179688 347.207031 269.769531 C 345.824219 272.355469 344.375 274.90625 342.867188 277.421875 C 341.359375 279.9375 339.789062 282.417969 338.15625 284.855469 C 336.527344 287.292969 334.835938 289.691406 333.089844 292.046875 C 331.339844 294.40625 329.535156 296.714844 327.671875 298.984375 C 325.8125 301.253906 323.894531 303.472656 321.925781 305.648438 C 319.953125 307.820312 317.933594 309.945312 315.855469 312.019531 C 313.78125 314.09375 311.65625 316.117188 309.484375 318.085938 C 307.3125 320.058594 305.089844 321.972656 302.820312 323.835938 C 300.554688 325.699219 298.242188 327.503906 295.886719 329.25 C 293.53125 331 291.132812 332.6875 288.691406 334.320312 C 286.253906 335.949219 283.777344 337.519531 281.261719 339.027344 C 278.746094 340.539062 276.191406 341.984375 273.605469 343.371094 C 271.019531 344.753906 268.398438 346.074219 265.746094 347.328125 C 263.097656 348.585938 260.414062 349.773438 257.703125 350.898438 C 254.996094 352.023438 252.257812 353.082031 249.496094 354.070312 C 246.734375 355.0625 243.949219 355.984375 241.144531 356.835938 C 238.335938 357.691406 235.511719 358.476562 232.664062 359.191406 C 229.820312 359.90625 226.957031 360.550781 224.082031 361.125 C 221.203125 361.699219 218.3125 362.203125 215.414062 362.636719 C 212.511719 363.070312 209.597656 363.433594 206.679688 363.722656 C 203.761719 364.015625 200.835938 364.234375 197.90625 364.378906 C 194.976562 364.527344 192.042969 364.601562 189.109375 364.605469 Z M 189.109375 16.425781 C 186.339844 16.425781 183.574219 16.492188 180.808594 16.628906 C 178.042969 16.765625 175.285156 16.96875 172.527344 17.242188 C 169.773438 17.511719 167.027344 17.851562 164.289062 18.257812 C 161.550781 18.664062 158.824219 19.136719 156.109375 19.675781 C 153.394531 20.21875 150.691406 20.824219 148.007812 21.496094 C 145.320312 22.167969 142.65625 22.90625 140.003906 23.710938 C 137.355469 24.515625 134.730469 25.382812 132.121094 26.316406 C 129.515625 27.25 126.933594 28.246094 124.375 29.304688 C 121.820312 30.367188 119.289062 31.488281 116.785156 32.671875 C 114.285156 33.855469 111.8125 35.101562 109.371094 36.40625 C 106.929688 37.710938 104.523438 39.074219 102.148438 40.5 C 99.773438 41.921875 97.4375 43.402344 95.132812 44.941406 C 92.832031 46.480469 90.570312 48.074219 88.347656 49.722656 C 86.125 51.375 83.941406 53.078125 81.804688 54.832031 C 79.664062 56.589844 77.566406 58.398438 75.515625 60.257812 C 73.464844 62.117188 71.460938 64.027344 69.503906 65.984375 C 67.546875 67.941406 65.640625 69.949219 63.78125 72 C 61.925781 74.050781 60.117188 76.148438 58.359375 78.289062 C 56.605469 80.429688 54.902344 82.609375 53.253906 84.835938 C 51.605469 87.058594 50.015625 89.320312 48.476562 91.625 C 46.9375 93.925781 45.460938 96.265625 44.035156 98.640625 C 42.613281 101.015625 41.25 103.421875 39.945312 105.863281 C 38.644531 108.308594 37.398438 110.78125 36.214844 113.28125 C 35.035156 115.785156 33.914062 118.316406 32.855469 120.875 C 31.796875 123.433594 30.800781 126.015625 29.871094 128.621094 C 28.9375 131.226562 28.070312 133.855469 27.269531 136.503906 C 26.464844 139.15625 25.730469 141.824219 25.058594 144.507812 C 24.386719 147.195312 23.78125 149.894531 23.242188 152.609375 C 22.703125 155.324219 22.230469 158.050781 21.828125 160.792969 C 21.421875 163.53125 21.085938 166.277344 20.8125 169.03125 C 20.542969 171.785156 20.339844 174.546875 20.207031 177.3125 C 20.074219 180.078125 20.007812 182.84375 20.007812 185.613281 C 20.007812 188.378906 20.078125 191.148438 20.214844 193.914062 C 20.351562 196.675781 20.558594 199.4375 20.832031 202.191406 C 21.105469 204.945312 21.445312 207.691406 21.851562 210.429688 C 22.257812 213.167969 22.734375 215.894531 23.277344 218.609375 C 23.816406 221.324219 24.425781 224.027344 25.097656 226.710938 C 25.773438 229.394531 26.511719 232.0625 27.320312 234.710938 C 28.125 237.359375 28.992188 239.988281 29.925781 242.59375 C 30.863281 245.199219 31.859375 247.78125 32.921875 250.335938 C 33.980469 252.894531 35.105469 255.425781 36.289062 257.925781 C 37.476562 260.425781 38.722656 262.898438 40.027344 265.339844 C 41.335938 267.78125 42.699219 270.1875 44.125 272.558594 C 45.550781 274.933594 47.03125 277.269531 48.570312 279.570312 C 50.109375 281.871094 51.707031 284.132812 53.355469 286.355469 C 55.007812 288.578125 56.710938 290.757812 58.46875 292.898438 C 60.226562 295.035156 62.035156 297.132812 63.898438 299.179688 C 65.757812 301.230469 67.667969 303.234375 69.625 305.191406 C 71.585938 307.144531 73.589844 309.050781 75.644531 310.910156 C 77.695312 312.769531 79.792969 314.574219 81.933594 316.328125 C 84.078125 318.082031 86.257812 319.785156 88.484375 321.429688 C 90.710938 323.078125 92.972656 324.671875 95.277344 326.207031 C 97.578125 327.742188 99.917969 329.222656 102.292969 330.640625 C 104.671875 332.0625 107.078125 333.425781 109.523438 334.730469 C 111.964844 336.03125 114.4375 337.273438 116.941406 338.457031 C 119.445312 339.636719 121.976562 340.753906 124.535156 341.8125 C 127.09375 342.871094 129.675781 343.863281 132.285156 344.792969 C 134.890625 345.722656 137.519531 346.589844 140.167969 347.390625 C 142.820312 348.191406 145.488281 348.929688 148.171875 349.597656 C 150.859375 350.269531 153.558594 350.871094 156.277344 351.410156 C 158.992188 351.949219 161.71875 352.417969 164.457031 352.820312 C 167.195312 353.226562 169.941406 353.5625 172.699219 353.828125 C 175.453125 354.097656 178.214844 354.300781 180.980469 354.433594 C 183.742188 354.566406 186.511719 354.628906 189.277344 354.628906 C 192.046875 354.625 194.8125 354.554688 197.578125 354.414062 C 200.34375 354.277344 203.105469 354.070312 205.859375 353.796875 C 208.613281 353.523438 211.359375 353.179688 214.097656 352.769531 C 216.835938 352.363281 219.5625 351.886719 222.277344 351.34375 C 224.992188 350.800781 227.691406 350.191406 230.375 349.515625 C 233.058594 348.839844 235.726562 348.097656 238.375 347.292969 C 241.023438 346.484375 243.648438 345.613281 246.253906 344.679688 C 248.859375 343.742188 251.441406 342.746094 254 341.683594 C 256.554688 340.621094 259.082031 339.496094 261.585938 338.308594 C 264.085938 337.121094 266.554688 335.875 268.996094 334.566406 C 271.4375 333.261719 273.84375 331.894531 276.214844 330.46875 C 278.589844 329.039062 280.925781 327.558594 283.222656 326.015625 C 285.523438 324.476562 287.785156 322.878906 290.007812 321.226562 C 292.226562 319.574219 294.40625 317.871094 296.546875 316.113281 C 298.683594 314.351562 300.777344 312.542969 302.824219 310.679688 C 304.875 308.820312 306.875 306.910156 308.832031 304.949219 C 310.785156 302.988281 312.691406 300.980469 314.550781 298.929688 C 316.40625 296.875 318.210938 294.777344 319.964844 292.632812 C 321.71875 290.492188 323.417969 288.308594 325.0625 286.082031 C 326.710938 283.855469 328.300781 281.59375 329.835938 279.289062 C 331.371094 276.984375 332.847656 274.644531 334.269531 272.269531 C 335.6875 269.890625 337.046875 267.480469 338.351562 265.039062 C 339.652344 262.59375 340.894531 260.121094 342.074219 257.617188 C 343.253906 255.113281 344.371094 252.582031 345.425781 250.023438 C 346.484375 247.464844 347.476562 244.878906 348.40625 242.273438 C 349.332031 239.664062 350.199219 237.035156 350.996094 234.386719 C 351.796875 231.734375 352.53125 229.066406 353.199219 226.378906 C 353.871094 223.695312 354.472656 220.992188 355.007812 218.277344 C 355.542969 215.558594 356.011719 212.832031 356.414062 210.09375 C 356.816406 207.355469 357.152344 204.609375 357.421875 201.851562 C 357.6875 199.097656 357.886719 196.335938 358.019531 193.570312 C 358.148438 190.804688 358.214844 188.039062 358.210938 185.269531 C 358.203125 182.507812 358.128906 179.746094 357.988281 176.984375 C 357.84375 174.222656 357.636719 171.46875 357.359375 168.71875 C 357.082031 165.96875 356.738281 163.226562 356.324219 160.492188 C 355.914062 157.757812 355.4375 155.039062 354.890625 152.328125 C 354.347656 149.617188 353.734375 146.921875 353.058594 144.242188 C 352.382812 141.5625 351.640625 138.902344 350.832031 136.257812 C 350.027344 133.613281 349.15625 130.992188 348.21875 128.390625 C 347.285156 125.789062 346.285156 123.214844 345.222656 120.660156 C 344.160156 118.109375 343.039062 115.585938 341.851562 113.085938 C 340.667969 110.589844 339.421875 108.125 338.113281 105.6875 C 336.808594 103.253906 335.441406 100.851562 334.019531 98.480469 C 332.59375 96.113281 331.113281 93.777344 329.574219 91.484375 C 328.035156 89.1875 326.441406 86.929688 324.792969 84.710938 C 323.144531 82.492188 321.441406 80.316406 319.6875 78.179688 C 317.933594 76.046875 316.125 73.953125 314.265625 71.90625 C 312.410156 69.863281 310.503906 67.863281 308.546875 65.910156 C 306.589844 63.957031 304.585938 62.050781 302.539062 60.195312 C 300.488281 58.339844 298.394531 56.539062 296.257812 54.785156 C 294.121094 53.035156 291.941406 51.335938 289.71875 49.6875 C 287.5 48.042969 285.238281 46.453125 282.941406 44.917969 C 280.640625 43.382812 278.304688 41.90625 275.933594 40.484375 C 273.5625 39.066406 271.160156 37.703125 268.722656 36.398438 C 266.285156 35.097656 263.816406 33.855469 261.316406 32.671875 C 258.816406 31.492188 256.292969 30.371094 253.738281 29.3125 C 251.183594 28.257812 248.605469 27.261719 246.003906 26.328125 C 243.402344 25.398438 240.777344 24.53125 238.132812 23.726562 C 235.488281 22.925781 232.824219 22.1875 230.144531 21.515625 C 227.464844 20.839844 224.765625 20.234375 222.054688 19.695312 C 219.347656 19.152344 216.625 18.679688 213.890625 18.273438 C 211.15625 17.863281 208.414062 17.523438 205.664062 17.253906 C 202.910156 16.980469 200.15625 16.773438 197.394531 16.636719 C 194.636719 16.5 191.871094 16.429688 189.109375 16.425781 Z M 189.109375 16.425781 " fill-opacity="1" fill-rule="nonzero"/></g><path fill="#545454" d="M 183.992188 69.125 L 194.226562 69.125 L 194.226562 185.269531 L 183.992188 185.269531 Z M 183.992188 69.125 " fill-opacity="1" fill-rule="nonzero"/><path fill="#545454" d="M 137.5625 262.199219 L 184.710938 182.730469 L 193.511719 187.949219 L 146.363281 267.421875 Z M 137.5625 262.199219 " fill-opacity="1" fill-rule="nonzero"/></svg>