<svg xmlns="http://www.w3.org/2000/svg" xmlns:xlink="http://www.w3.org/1999/xlink" width="500" zoomAndPan="magnify" viewBox="0 0 375 374.999991" height="500" preserveAspectRatio="xMidYMid meet" version="1.0"><defs><clipPath id="fb6ac12639"><path d="M 86.269531 134.480469 L 288.769531 134.480469 L 288.769531 240.230469 L 86.269531 240.230469 Z M 86.269531 134.480469 " clip-rule="nonzero"/></clipPath></defs><g clip-path="url(#fb6ac12639)"><path fill="#545454" d="M 89.738281 187.378906 C 92.636719 190.542969 102.945312 201.335938 117.917969 212 C 134.199219 223.601562 159.496094 237.429688 187.542969 237.429688 C 215.613281 237.429688 240.929688 223.582031 257.222656 211.960938 C 272.175781 201.296875 282.453125 190.539062 285.347656 187.378906 C 282.445312 184.210938 272.136719 173.417969 257.164062 162.753906 C 240.882812 151.152344 215.589844 137.324219 187.542969 137.324219 C 159.472656 137.324219 134.15625 151.175781 117.863281 162.792969 C 102.90625 173.457031 92.632812 184.214844 89.738281 187.378906 Z M 187.542969 240.253906 C 174.800781 240.253906 161.5625 237.515625 148.199219 232.109375 C 137.542969 227.800781 126.78125 221.792969 116.214844 214.257812 C 98.242188 201.441406 86.875 188.429688 86.761719 188.300781 C 86.304688 187.769531 86.304688 186.984375 86.761719 186.453125 C 86.875 186.324219 98.242188 173.3125 116.214844 160.496094 C 126.78125 152.960938 137.542969 146.957031 148.199219 142.644531 C 161.5625 137.242188 174.800781 134.5 187.542969 134.5 C 200.285156 134.5 213.523438 137.242188 226.886719 142.644531 C 237.542969 146.957031 248.304688 152.960938 258.871094 160.496094 C 276.84375 173.3125 288.207031 186.324219 288.320312 186.453125 C 288.78125 186.984375 288.78125 187.769531 288.320312 188.300781 C 288.207031 188.429688 276.84375 201.441406 258.871094 214.257812 C 248.304688 221.792969 237.542969 227.800781 226.886719 232.109375 C 213.523438 237.515625 200.285156 240.253906 187.542969 240.253906 " fill-opacity="1" fill-rule="nonzero"/></g><path fill="#545454" d="M 187.542969 143.78125 C 163.433594 143.78125 143.820312 163.339844 143.820312 187.378906 C 143.820312 211.414062 163.433594 230.972656 187.542969 230.972656 C 211.648438 230.972656 231.261719 211.414062 231.261719 187.378906 C 231.261719 163.339844 211.648438 143.78125 187.542969 143.78125 Z M 187.542969 233.796875 C 175.105469 233.796875 163.417969 228.96875 154.625 220.199219 C 145.832031 211.433594 140.988281 199.777344 140.988281 187.378906 C 140.988281 174.976562 145.832031 163.320312 154.625 154.554688 C 163.417969 145.789062 175.105469 140.957031 187.542969 140.957031 C 199.976562 140.957031 211.667969 145.789062 220.460938 154.554688 C 229.253906 163.320312 234.09375 174.976562 234.09375 187.378906 C 234.09375 199.777344 229.253906 211.433594 220.460938 220.199219 C 211.667969 228.96875 199.976562 233.796875 187.542969 233.796875 " fill-opacity="1" fill-rule="nonzero"/></svg>