<svg xmlns="http://www.w3.org/2000/svg" xmlns:xlink="http://www.w3.org/1999/xlink" width="500" zoomAndPan="magnify" viewBox="0 0 375 374.999991" height="500" preserveAspectRatio="xMidYMid meet" version="1.0"><defs><clipPath id="7d87ac181b"><path d="M 3 6.152344 L 371.921875 6.152344 L 371.921875 369.152344 L 3 369.152344 Z M 3 6.152344 " clip-rule="nonzero"/></clipPath></defs><g clip-path="url(#7d87ac181b)"><path fill="#545454" d="M 224.621094 184.65625 C 256.167969 169.519531 278.054688 137.332031 278.054688 100.03125 C 278.054688 48.265625 235.996094 6.152344 184.296875 6.152344 C 132.59375 6.152344 90.539062 48.265625 90.539062 100.03125 C 90.539062 138.058594 113.277344 170.8125 145.820312 185.550781 C 64.296875 203.269531 3.03125 276.035156 3.03125 362.894531 C 3.03125 366.355469 5.824219 369.152344 9.28125 369.152344 L 365.5625 369.152344 C 369.019531 369.152344 371.816406 366.355469 371.816406 362.894531 C 371.816406 274.484375 308.332031 200.671875 224.621094 184.65625 Z M 103.039062 100.03125 C 103.039062 55.171875 139.492188 18.667969 184.296875 18.667969 C 229.101562 18.667969 265.554688 55.171875 265.554688 100.03125 C 265.554688 144.894531 229.101562 181.394531 184.296875 181.394531 C 139.492188 181.394531 103.039062 144.894531 103.039062 100.03125 Z M 15.648438 356.636719 C 18.945312 266.34375 93.328125 193.910156 184.296875 193.910156 L 190.546875 193.910156 C 281.519531 193.910156 355.902344 266.34375 359.195312 356.636719 Z M 15.648438 356.636719 " fill-opacity="1" fill-rule="nonzero"/></g></svg>