<svg xmlns="http://www.w3.org/2000/svg" xmlns:xlink="http://www.w3.org/1999/xlink" width="500" zoomAndPan="magnify" viewBox="0 0 375 374.999991" height="500" preserveAspectRatio="xMidYMid meet" version="1.0"><defs><clipPath id="ea4539439d"><path d="M 84.703125 60.730469 L 290 60.730469 L 290 314.230469 L 84.703125 314.230469 Z M 84.703125 60.730469 " clip-rule="nonzero"/></clipPath></defs><rect x="-37.5" width="450" fill="#ffffff" y="-37.499999" height="449.999989" fill-opacity="1"/><rect x="-37.5" width="450" fill="#ffffff" y="-37.499999" height="449.999989" fill-opacity="1"/><rect x="-37.5" width="450" fill="#ffffff" y="-37.499999" height="449.999989" fill-opacity="1"/><g clip-path="url(#ea4539439d)"><path fill="#484848" d="M 277.878906 60.730469 C 218.089844 61.101562 158.296875 60.914062 98.503906 60.914062 C 86.101562 60.914062 84.992188 62.027344 84.992188 74.617188 C 84.992188 147.761719 84.992188 220.71875 84.992188 293.675781 C 84.992188 299.789062 84.992188 305.898438 84.992188 314.230469 C 90.359375 309.417969 94.0625 306.269531 97.765625 302.933594 C 125.160156 277.195312 152.742188 251.644531 179.769531 225.71875 C 185.507812 220.164062 189.210938 220.164062 194.949219 225.71875 C 220.496094 250.160156 246.410156 274.234375 272.140625 298.492188 C 277.140625 303.121094 281.765625 308.121094 288.617188 312.007812 C 288.800781 309.417969 288.984375 308.121094 288.984375 307.007812 C 289.171875 228.867188 289.355469 150.539062 289.726562 72.398438 C 289.910156 63.695312 286.578125 60.730469 277.878906 60.730469 Z M 278.988281 291.453125 C 254.554688 268.679688 232.339844 247.753906 210.128906 227.015625 C 205.128906 222.386719 200.132812 217.757812 195.6875 212.757812 C 190.136719 206.644531 185.324219 206.832031 179.398438 212.386719 C 154.410156 236.273438 129.234375 259.789062 104.242188 283.492188 C 102.023438 285.527344 100.171875 287.9375 95.914062 289.234375 C 95.914062 286.453125 95.914062 284.046875 95.914062 281.824219 C 95.914062 215.535156 95.914062 149.242188 95.914062 82.953125 C 95.914062 70.914062 97.210938 69.617188 109.054688 69.617188 C 161.8125 69.617188 214.570312 69.617188 267.144531 69.617188 C 278.621094 69.617188 278.988281 70.175781 278.988281 81.65625 C 278.988281 147.945312 278.988281 214.238281 278.988281 280.53125 C 278.988281 283.308594 278.988281 285.898438 278.988281 291.453125 Z M 278.988281 291.453125 " fill-opacity="1" fill-rule="nonzero"/></g></svg>