<svg xmlns="http://www.w3.org/2000/svg" xmlns:xlink="http://www.w3.org/1999/xlink" width="500" zoomAndPan="magnify" viewBox="0 0 375 374.999991" height="500" preserveAspectRatio="xMidYMid meet" version="1.0"><defs><clipPath id="32c77009c3"><path d="M 67 115.082031 L 308.304688 115.082031 L 308.304688 259.832031 L 67 259.832031 Z M 67 115.082031 " clip-rule="nonzero"/></clipPath></defs><rect x="-37.5" width="450" fill="#ffffff" y="-37.499999" height="449.999989" fill-opacity="1"/><rect x="-37.5" width="450" fill="#ffffff" y="-37.499999" height="449.999989" fill-opacity="1"/><g clip-path="url(#32c77009c3)"><path fill="#000000" d="M 187.554688 141.988281 C 162.46875 141.988281 142.039062 162.398438 142.039062 187.457031 C 142.039062 212.519531 162.46875 232.925781 187.554688 232.925781 C 212.640625 232.925781 233.070312 212.519531 233.070312 187.457031 C 233.070312 162.398438 212.640625 141.988281 187.554688 141.988281 Z M 187.554688 222.226562 C 168.355469 222.226562 152.75 206.632812 152.75 187.457031 C 152.75 168.28125 168.355469 152.6875 187.554688 152.6875 C 206.75 152.6875 222.359375 168.28125 222.359375 187.457031 C 222.359375 206.632812 206.75 222.226562 187.554688 222.226562 Z M 192.910156 168.734375 C 192.910156 171.675781 190.5 174.085938 187.554688 174.085938 C 180.164062 174.085938 174.167969 180.074219 174.167969 187.457031 C 174.167969 190.398438 171.757812 192.804688 168.8125 192.804688 C 165.867188 192.804688 163.457031 190.398438 163.457031 187.457031 C 163.457031 174.191406 174.273438 163.386719 187.554688 163.386719 C 190.5 163.386719 192.910156 165.792969 192.910156 168.734375 Z M 307.3125 184.78125 C 282.628906 141.882812 236.738281 115.242188 187.554688 115.242188 C 138.371094 115.242188 92.480469 141.882812 67.792969 184.78125 C 66.859375 186.441406 66.859375 188.472656 67.792969 190.105469 C 92.480469 233.03125 138.371094 259.671875 187.554688 259.671875 C 236.738281 259.671875 282.628906 233.03125 307.3125 190.132812 C 308.277344 188.472656 308.277344 186.441406 307.3125 184.78125 Z M 187.554688 248.972656 C 143.214844 248.972656 101.769531 225.488281 78.636719 187.457031 C 101.769531 149.425781 143.214844 125.941406 187.554688 125.941406 C 231.890625 125.941406 273.335938 149.425781 296.46875 187.457031 C 273.335938 225.488281 231.890625 248.972656 187.554688 248.972656 Z M 187.554688 248.972656 " fill-opacity="1" fill-rule="nonzero"/></g></svg>